<?xml version="1.0" encoding="utf-8"?>
<!-- Generator: Adobe Illustrator 19.0.0, SVG Export Plug-In . SVG Version: 6.00 Build 0)  -->
<svg version="1.1" id="Capa_1" xmlns="http://www.w3.org/2000/svg" xmlns:xlink="http://www.w3.org/1999/xlink" x="0px" y="0px"
	 viewBox="-275 366.3 60.7 60.7" style="enable-background:new -275 366.3 60.7 60.7;" xml:space="preserve">
<style type="text/css">
	.st0{fill:#FFFFFF;}
</style>
<g>
	<path class="st0" d="M-217.6,366.3h-54c-1.8,0-3.4,1.5-3.4,3.4v54c0,1.9,1.5,3.4,3.4,3.4h29.1v-23.5h-7.9v-9.2h7.9v-6.8
		c0-7.8,4.8-12.1,11.8-12.1c3.4,0,6.2,0.3,7.1,0.4v8.2l-4.9,0c-3.8,0-4.5,1.8-4.5,4.5v5.9h9.1l-1.2,9.2h-7.9V427h15.5
		c1.9,0,3.4-1.5,3.4-3.4v-54C-214.3,367.8-215.8,366.3-217.6,366.3z"/>
</g>
</svg>
