<?xml version="1.0" encoding="utf-8"?>
<!-- Generator: Adobe Illustrator 19.0.0, SVG Export Plug-In . SVG Version: 6.00 Build 0)  -->
<svg version="1.1" id="Layer_1" xmlns="http://www.w3.org/2000/svg" xmlns:xlink="http://www.w3.org/1999/xlink" x="0px" y="0px"
	 viewBox="0 0 1347 543.3" style="enable-background:new 0 0 1347 543.3;" xml:space="preserve">
<style type="text/css">
	.st0{clip-path:url(#SVGID_2_);}
	.st1{fill:url(#SVGID_3_);}
	.st2{fill:#636363;}
	.st3{fill:url(#SVGID_4_);}
	.st4{fill:#FFFFFF;}
	.st5{fill:url(#SVGID_5_);}
	.st6{fill:url(#SVGID_6_);}
	.st7{fill:url(#SVGID_7_);}
	.st8{fill:url(#SVGID_8_);}
	.st9{fill:url(#SVGID_9_);}
	.st10{fill:url(#SVGID_10_);}
	.st11{fill:url(#SVGID_11_);}
	.st12{fill:url(#SVGID_12_);}
	.st13{fill:url(#SVGID_13_);}
	.st14{fill:url(#SVGID_14_);}
</style>
<g>
	<defs>
		<rect id="SVGID_1_" y="0" width="1347" height="543.3"/>
	</defs>
	<clipPath id="SVGID_2_">
		<use xlink:href="#SVGID_1_"  style="overflow:visible;"/>
	</clipPath>
	<g class="st0">
		<g>
			<linearGradient id="SVGID_3_" gradientUnits="userSpaceOnUse" x1="243.2575" y1="240.7581" x2="160.0821" y2="-1.6389">
				<stop  offset="0" style="stop-color:#FE8900"/>
				<stop  offset="1" style="stop-color:#FE5500"/>
			</linearGradient>
			<path class="st1" d="M506.5-82.9c-18.1-2.2-36.3-4-54.5-5.8c-125.7-12.9-125.4-87.7-199.8-84c-49.3,2.5-87.9,58.4-123,26.7
				c-77.8-70.3-165.8-26.7-190.4,30.8c-12.6,29.3-6.3,47.6-8.1,88.5c-2.8,62.6-107.9,45.7-192,82.1c-79.7,34.5-81.6,95.8-23.5,127
				c90.7,48.6,191.7-13,270.2,36.1c140.4,87.8,158.7,29.7,268.5-6.1c95.3-31.1,159.3,7.6,247.5,6c71.7,1.6,126.5-16.5,168-54.5
				C775.9,66.5,675.1-62.8,506.5-82.9z"/>
			<path class="st2" d="M895.6-534.3c-148.9,48.5-162.2,152.4-297.6,100c-40.5-15.6-70.7-33.4-109.5-39.1
				C377.5-490,344.8-377.1,243-387c-65-6.3-162.6-25.5-243.4,39.9c-41.5,33.6-43.4,73.1-47.9,121.3C-57.8-125.2-175-95.3-213.5,13.2
				c-32.8,92.5,31.6,165,141.7,178.7c126.7,15.8,216.7-37.3,354.3-84.1c121.2-41.2,199.4,22.8,342.1,42.6
				c98.5,13.7,182.1-22.1,240.9-79.2C942.4-3.5,950-69,963-147.2c14.3-86.4,77.6-125.6,127.4-168.6
				C1244.2-448.8,1056.1-586.6,895.6-534.3z"/>
			<linearGradient id="SVGID_4_" gradientUnits="userSpaceOnUse" x1="1057.6967" y1="222.651" x2="1176.8665" y2="568.702">
				<stop  offset="0" style="stop-color:#FE8900"/>
				<stop  offset="1" style="stop-color:#FE5500"/>
			</linearGradient>
			<path class="st3" d="M1274.4,291.5c-37.6,5.6-39.5-4.5-113.8-39.1c-78.3-36.5-196.5-12.3-232.2,64.5
				c-12.2,26.2-12.5,47.4-20.9,77.7c-13.1,47.8-58.7,61.6-97.9,77c-42.8,16.8-155.8,49.2-132.5,146.8
				c13.4,56.3,72.8,99.7,160.2,94.9c47.7-2.6,90.7-16.6,136.3-28.8c158.5-42.4,151.4-34,318.7-20.6c0.3-3.2,6.6,0.1,30.7-1.5
				c112.3-7.2,124.3-70,141.8-139.9c26.2-104.6,124.7-112,146.3-171.6c6.8-18.7-3.2-44.2-36.6-63.1
				C1479.6,234.1,1341.3,281.5,1274.4,291.5z"/>
			<path class="st2" d="M1204.7,293.6c-148.9,48.5-162.2,152.4-297.6,100c-40.5-15.6-70.7-33.4-109.5-39.1
				c-110.9-16.5-143.6,96.3-245.5,86.4c-65-6.3-162.6-25.5-243.4,39.9c-41.5,33.6-43.4,73.1-47.9,121.3
				c-9.5,100.6-126.7,130.5-165.2,239c-32.8,92.5,31.6,165,141.7,178.7c126.7,15.8,216.7-37.3,354.3-84.1
				c121.2-41.2,199.4,22.8,342.1,42.6c98.5,13.7,182.1-22.1,240.9-79.2c76.9-74.6,84.5-140.2,97.4-218.4
				c14.3-86.4,77.6-125.6,127.4-168.6C1553.3,379.1,1365.2,241.3,1204.7,293.6z"/>
			<g>
				<path class="st4" d="M-93.5,338.4c-6.8-50.3,16.9-103.2,63.2-141.7c46.4-38.4,116.6-63.4,188-66.7
					c73.2-3.4,144.8,14.3,214.1,31.4c73.2,18.1,148.9,36.8,225.7,30.3c54.9-4.7,106.8-22,156.9-38.8
					c59.2-19.8,120.4-40.3,186.2-39.4c22.3,0.3,44.9,3.1,66.6,5.8c30.2,3.8,61.5,7.7,92.2,4.8c45.5-4.3,89.7-23.5,124.4-54.2
					c29.5-26,49.1-56.2,69.4-93.5c11.4-20.9,22.2-43.1,19.2-65.2c-2.9-21.1-22.6-44.6-54.7-48.8l0.2-0.9
					c32.8,4.3,52.9,28.3,55.8,49.7c3,22.3-7.9,44.7-19.3,65.6c-20.4,37.3-40,67.6-69.6,93.7c-35,30.9-79.5,50.2-125.3,54.5
					c-30.9,2.9-62.3-1-92.6-4.8c-21.7-2.7-44.2-5.5-66.4-5.8c-65.5-0.9-126.6,19.6-185.6,39.3c-50.2,16.8-102.2,34.2-157.3,38.9
					c-10.8,0.9-21.5,1.3-32.2,1.3c-66.1,0-131-16-194.1-31.6c-69.2-17.1-140.7-34.8-213.6-31.4c-71,3.3-140.9,28.1-187.1,66.4
					c-46.1,38.3-69.6,91-62.9,141L-93.5,338.4z"/>
			</g>
			<g>
				<path class="st4" d="M221.2,673.3c-9.7-28.4-1.9-58.6,22.6-87.2c22.5-26.4,56.8-48.7,96.7-62.9c78.9-28.1,169.2-29.7,256.6-31.4
					c78.3-1.5,175.8-3.3,255.4-32.9c16.4-6.1,32.4-13.5,47.8-20.6c32-14.8,65.1-30.1,103.2-34.6c45.2-5.3,90,5.2,133.3,15.5
					c18,4.3,36.7,8.7,55.1,11.9c136.2,23.7,293.2-22.6,365.1-107.6l1.1,0.5c-35.2,41.6-91.6,75.4-158.9,95.2s-141.1,24.4-207.7,12.8
					c-18.5-3.2-37.1-7.6-55.2-11.9c-43.2-10.2-87.8-20.8-132.6-15.5c-37.8,4.5-70.8,19.7-102.7,34.4c-15.5,7.2-31.5,14.6-47.9,20.7
					c-79.9,29.8-177.5,31.6-256,33c-87.2,1.6-177.4,3.3-256,31.3c-73.2,26.1-139.6,87.2-118.5,149.1L221.2,673.3z"/>
			</g>
			<g>
				<g>
					<path class="st4" d="M0,227.2c-70.7,0-137-19.4-186.9-54.6s-77.4-82.1-77.4-132c0-49.9,27.5-96.7,77.4-132
						C-137-126.5-70.7-145.9,0-145.9s137,19.4,186.9,54.6c49.9,35.2,77.4,82.1,77.4,132c0,49.9-27.5,96.7-77.4,132
						S70.7,227.2,0,227.2z M0-145c-145,0-263,83.3-263,185.6C-263,143-145,226.3,0,226.3c145,0,263-83.3,263-185.6
						C263-61.7,145-145,0-145z"/>
				</g>
				<g>
					<path class="st4" d="M0,203.9c-127.6,0-231.4-73.3-231.4-163.3c0-90,103.8-163.3,231.4-163.3c127.6,0,231.4,73.3,231.4,163.3
						C231.4,130.7,127.6,203.9,0,203.9z M0-121.7c-126.8,0-230,72.8-230,162.4C-230,130.2-126.8,203,0,203s230-72.8,230-162.4
						C230-48.9,126.8-121.7,0-121.7z"/>
				</g>
				<g>
					<path class="st4" d="M0,180.7c-109.4,0-198.4-62.8-198.4-140c0-77.2,89-140,198.4-140c109.4,0,198.4,62.8,198.4,140
						C198.4,117.9,109.4,180.7,0,180.7z M0-98.5c-108.7,0-197.1,62.4-197.1,139.1c0,76.7,88.4,139.1,197.1,139.1
						s197.1-62.4,197.1-139.1C197.1-36.1,108.7-98.5,0-98.5z"/>
				</g>
				<g>
					<path class="st4" d="M0,157.4c-91.2,0-165.4-52.4-165.4-116.8C-165.4-23.8-91.2-76.2,0-76.2S165.4-23.8,165.4,40.6
						C165.4,105,91.2,157.4,0,157.4z M0-75.2c-90.5,0-164.1,52-164.1,115.8c0,63.9,73.6,115.8,164.1,115.8s164.1-52,164.1-115.8
						C164.1-23.2,90.5-75.2,0-75.2z"/>
				</g>
				<g>
					<path class="st4" d="M0,134.2c-73.1,0-132.5-42-132.5-93.5c0-51.6,59.4-93.5,132.5-93.5s132.5,42,132.5,93.5
						C132.5,92.2,73.1,134.2,0,134.2z M0-52c-72.3,0-131.2,41.5-131.2,92.6c0,51,58.8,92.6,131.2,92.6c72.3,0,131.2-41.5,131.2-92.6
						C131.2-10.4,72.3-52,0-52z"/>
				</g>
			</g>
			<g>
				<g>
					<path class="st4" d="M1389.1,745.2c-70.7,0-137-19.4-186.9-54.6s-77.4-82.1-77.4-132s27.5-96.7,77.4-132
						c49.9-35.2,116.3-54.6,186.9-54.6c70.7,0,137,19.4,186.9,54.6c49.9,35.2,77.4,82.1,77.4,132s-27.5,96.7-77.4,132
						C1526.1,725.8,1459.7,745.2,1389.1,745.2z M1389.1,373c-145,0-263,83.3-263,185.6s118,185.6,263,185.6
						c145,0,263-83.3,263-185.6S1534.1,373,1389.1,373z"/>
				</g>
				<g>
					<path class="st4" d="M1389.1,721.9c-127.6,0-231.4-73.3-231.4-163.3c0-90.1,103.8-163.3,231.4-163.3
						c127.6,0,231.4,73.3,231.4,163.3C1620.4,648.7,1516.6,721.9,1389.1,721.9z M1389.1,396.2c-126.8,0-230,72.8-230,162.4
						c0,89.5,103.2,162.4,230,162.4c126.8,0,230-72.8,230-162.4C1619.1,469.1,1515.9,396.2,1389.1,396.2z"/>
				</g>
				<g>
					<path class="st4" d="M1389.1,698.7c-109.4,0-198.4-62.8-198.4-140c0-77.2,89-140,198.4-140c109.4,0,198.4,62.8,198.4,140
						C1587.5,635.8,1498.5,698.7,1389.1,698.7z M1389.1,419.5c-108.7,0-197.1,62.4-197.1,139.1c0,76.7,88.4,139.1,197.1,139.1
						c108.7,0,197.1-62.4,197.1-139.1C1586.1,481.9,1497.7,419.5,1389.1,419.5z"/>
				</g>
				<g>
					<path class="st4" d="M1389.1,675.4c-91.2,0-165.4-52.4-165.4-116.8s74.2-116.8,165.4-116.8c91.2,0,165.4,52.4,165.4,116.8
						S1480.3,675.4,1389.1,675.4z M1389.1,442.8c-90.5,0-164.1,52-164.1,115.8c0,63.9,73.6,115.8,164.1,115.8
						c90.5,0,164.1-52,164.1-115.8C1553.2,494.7,1479.5,442.8,1389.1,442.8z"/>
				</g>
				<g>
					<path class="st4" d="M1389.1,652.1c-73.1,0-132.5-42-132.5-93.5s59.4-93.5,132.5-93.5c73.1,0,132.5,42,132.5,93.5
						S1462.1,652.1,1389.1,652.1z M1389.1,466c-72.3,0-131.2,41.5-131.2,92.6c0,51,58.8,92.6,131.2,92.6
						c72.3,0,131.2-41.5,131.2-92.6C1520.2,507.6,1461.4,466,1389.1,466z"/>
				</g>
			</g>
		</g>
		<g>
			<linearGradient id="SVGID_5_" gradientUnits="userSpaceOnUse" x1="117.9975" y1="147.4947" x2="422.6693" y2="147.4947">
				<stop  offset="0" style="stop-color:#000000"/>
				<stop  offset="0.109" style="stop-color:#060606"/>
				<stop  offset="0.252" style="stop-color:#161616"/>
				<stop  offset="0.4141" style="stop-color:#323232"/>
				<stop  offset="0.5902" style="stop-color:#575757"/>
				<stop  offset="0.7775" style="stop-color:#888888"/>
				<stop  offset="0.9716" style="stop-color:#C3C3C3"/>
				<stop  offset="1" style="stop-color:#CCCCCC"/>
			</linearGradient>
			<polygon class="st5" points="119.9,255 118,253.7 420.8,40 422.7,41.3 			"/>
		</g>
		<g>
			<linearGradient id="SVGID_6_" gradientUnits="userSpaceOnUse" x1="943.016" y1="397.0076" x2="1268.0314" y2="397.0076">
				<stop  offset="0" style="stop-color:#000000"/>
				<stop  offset="0.109" style="stop-color:#060606"/>
				<stop  offset="0.252" style="stop-color:#161616"/>
				<stop  offset="0.4141" style="stop-color:#323232"/>
				<stop  offset="0.5902" style="stop-color:#575757"/>
				<stop  offset="0.7775" style="stop-color:#888888"/>
				<stop  offset="0.9716" style="stop-color:#C3C3C3"/>
				<stop  offset="1" style="stop-color:#CCCCCC"/>
			</linearGradient>
			<polygon class="st6" points="944.9,511.7 943,510.4 1266.1,282.3 1268,283.6 			"/>
		</g>
		<g>
			<linearGradient id="SVGID_7_" gradientUnits="userSpaceOnUse" x1="720.2828" y1="398.4608" x2="1018.4547" y2="398.4608">
				<stop  offset="0" style="stop-color:#000000"/>
				<stop  offset="0.109" style="stop-color:#060606"/>
				<stop  offset="0.252" style="stop-color:#161616"/>
				<stop  offset="0.4141" style="stop-color:#323232"/>
				<stop  offset="0.5902" style="stop-color:#575757"/>
				<stop  offset="0.7775" style="stop-color:#888888"/>
				<stop  offset="0.9716" style="stop-color:#C3C3C3"/>
				<stop  offset="1" style="stop-color:#CCCCCC"/>
			</linearGradient>
			<polygon class="st7" points="722.2,503.7 720.3,502.4 1016.6,293.2 1018.5,294.6 			"/>
		</g>
		<g>
			<linearGradient id="SVGID_8_" gradientUnits="userSpaceOnUse" x1="97.5418" y1="314.7551" x2="260.1421" y2="314.7551">
				<stop  offset="0" style="stop-color:#000000"/>
				<stop  offset="0.109" style="stop-color:#060606"/>
				<stop  offset="0.252" style="stop-color:#161616"/>
				<stop  offset="0.4141" style="stop-color:#323232"/>
				<stop  offset="0.5902" style="stop-color:#575757"/>
				<stop  offset="0.7775" style="stop-color:#888888"/>
				<stop  offset="0.9716" style="stop-color:#C3C3C3"/>
				<stop  offset="1" style="stop-color:#CCCCCC"/>
			</linearGradient>
			<polygon class="st8" points="99.4,372.1 97.5,370.8 258.3,257.4 260.1,258.7 			"/>
		</g>
		<g>
			
				<radialGradient id="SVGID_9_" cx="582.5013" cy="252.2282" r="44.5466" gradientTransform="matrix(1.9089 0 0 1.3475 0 -27.3992)" gradientUnits="userSpaceOnUse">
				<stop  offset="0.198" style="stop-color:#808080"/>
				<stop  offset="0.4377" style="stop-color:#AAAAAA"/>
				<stop  offset="0.8186" style="stop-color:#E7E7E7"/>
				<stop  offset="1" style="stop-color:#FFFFFF"/>
			</radialGradient>
			<ellipse class="st9" cx="1112" cy="312.5" rx="85" ry="60"/>
			<linearGradient id="SVGID_10_" gradientUnits="userSpaceOnUse" x1="1112.2867" y1="329.1012" x2="1112.2867" y2="255.9182">
				<stop  offset="0" style="stop-color:#FE9700"/>
				<stop  offset="1" style="stop-color:#FFE263"/>
			</linearGradient>
			<ellipse class="st10" cx="1112.3" cy="295.2" rx="62.1" ry="43.9"/>
		</g>
		<g>
			
				<radialGradient id="SVGID_11_" cx="392.8376" cy="334.4084" r="15.4778" gradientTransform="matrix(1.9089 0 0 1.3475 0 -27.3992)" gradientUnits="userSpaceOnUse">
				<stop  offset="0.198" style="stop-color:#4D4D4D"/>
				<stop  offset="0.5813" style="stop-color:#A9A9A9"/>
				<stop  offset="0.8656" style="stop-color:#E7E7E7"/>
				<stop  offset="1" style="stop-color:#FFFFFF"/>
			</radialGradient>
			<ellipse class="st11" cx="749.9" cy="423.2" rx="29.5" ry="20.9"/>
			<linearGradient id="SVGID_12_" gradientUnits="userSpaceOnUse" x1="750.0167" y1="428.9919" x2="750.0167" y2="403.5644">
				<stop  offset="0" style="stop-color:#FE5500"/>
				<stop  offset="1" style="stop-color:#FE8900"/>
			</linearGradient>
			<ellipse class="st12" cx="750" cy="417.2" rx="21.6" ry="15.2"/>
		</g>
		<g>
			
				<radialGradient id="SVGID_13_" cx="187.5852" cy="213.3312" r="22.4847" gradientTransform="matrix(1.9089 0 0 1.3475 0 -27.3992)" gradientUnits="userSpaceOnUse">
				<stop  offset="0.198" style="stop-color:#666666"/>
				<stop  offset="0.5222" style="stop-color:#A9A9A9"/>
				<stop  offset="0.8463" style="stop-color:#E7E7E7"/>
				<stop  offset="1" style="stop-color:#FFFFFF"/>
			</radialGradient>
			<ellipse class="st13" cx="358.1" cy="260.1" rx="42.9" ry="30.3"/>
			<linearGradient id="SVGID_14_" gradientUnits="userSpaceOnUse" x1="358.2539" y1="268.4552" x2="358.2539" y2="231.5163">
				<stop  offset="0" style="stop-color:#FE5500"/>
				<stop  offset="1" style="stop-color:#FE8900"/>
			</linearGradient>
			<ellipse class="st14" cx="358.3" cy="251.3" rx="31.4" ry="22.1"/>
		</g>
		<g>
			<ellipse class="st4" cx="488" cy="43.1" rx="2.4" ry="1.7"/>
			<ellipse class="st4" cx="504.1" cy="43.1" rx="2.4" ry="1.7"/>
			<ellipse class="st4" cx="520.1" cy="43.1" rx="2.4" ry="1.7"/>
			<ellipse class="st4" cx="536.1" cy="43.1" rx="2.4" ry="1.7"/>
			<ellipse class="st4" cx="552.2" cy="43.1" rx="2.4" ry="1.7"/>
			<ellipse class="st4" cx="568.2" cy="43.1" rx="2.4" ry="1.7"/>
			<ellipse class="st4" cx="584.2" cy="43.1" rx="2.4" ry="1.7"/>
			<ellipse class="st4" cx="600.3" cy="43.1" rx="2.4" ry="1.7"/>
			<ellipse class="st4" cx="616.3" cy="43.1" rx="2.4" ry="1.7"/>
			<ellipse class="st4" cx="632.3" cy="43.1" rx="2.4" ry="1.7"/>
			<ellipse class="st4" cx="648.4" cy="43.1" rx="2.4" ry="1.7"/>
			<ellipse class="st4" cx="664.4" cy="43.1" rx="2.4" ry="1.7"/>
			<ellipse class="st4" cx="680.4" cy="43.1" rx="2.4" ry="1.7"/>
			<ellipse class="st4" cx="696.5" cy="43.1" rx="2.4" ry="1.7"/>
			<ellipse class="st4" cx="712.5" cy="43.1" rx="2.4" ry="1.7"/>
			<ellipse class="st4" cx="728.6" cy="43.1" rx="2.4" ry="1.7"/>
			<ellipse class="st4" cx="744.6" cy="43.1" rx="2.4" ry="1.7"/>
			<ellipse class="st4" cx="760.6" cy="43.1" rx="2.4" ry="1.7"/>
			<ellipse class="st4" cx="776.7" cy="43.1" rx="2.4" ry="1.7"/>
			<ellipse class="st4" cx="792.7" cy="43.1" rx="2.4" ry="1.7"/>
			<ellipse class="st4" cx="808.7" cy="43.1" rx="2.4" ry="1.7"/>
			<ellipse class="st4" cx="824.8" cy="43.1" rx="2.4" ry="1.7"/>
			<ellipse class="st4" cx="840.8" cy="43.1" rx="2.4" ry="1.7"/>
			<ellipse class="st4" cx="856.8" cy="43.1" rx="2.4" ry="1.7"/>
			<ellipse class="st4" cx="872.9" cy="43.1" rx="2.4" ry="1.7"/>
			<ellipse class="st4" cx="888.9" cy="43.1" rx="2.4" ry="1.7"/>
			<ellipse class="st4" cx="904.9" cy="43.1" rx="2.4" ry="1.7"/>
			<ellipse class="st4" cx="921" cy="43.1" rx="2.4" ry="1.7"/>
			<ellipse class="st4" cx="937" cy="43.1" rx="2.4" ry="1.7"/>
			<ellipse class="st4" cx="953.1" cy="43.1" rx="2.4" ry="1.7"/>
			<ellipse class="st4" cx="969.1" cy="43.1" rx="2.4" ry="1.7"/>
			<ellipse class="st4" cx="985.1" cy="43.1" rx="2.4" ry="1.7"/>
			<ellipse class="st4" cx="1001.2" cy="43.1" rx="2.4" ry="1.7"/>
			<ellipse class="st4" cx="1017.2" cy="43.1" rx="2.4" ry="1.7"/>
			<ellipse class="st4" cx="1033.2" cy="43.1" rx="2.4" ry="1.7"/>
			<ellipse class="st4" cx="1049.3" cy="43.1" rx="2.4" ry="1.7"/>
			<ellipse class="st4" cx="1065.3" cy="43.1" rx="2.4" ry="1.7"/>
			<ellipse class="st4" cx="1081.3" cy="43.1" rx="2.4" ry="1.7"/>
			<ellipse class="st4" cx="1097.4" cy="43.1" rx="2.4" ry="1.7"/>
			<ellipse class="st4" cx="1113.4" cy="43.1" rx="2.4" ry="1.7"/>
			<ellipse class="st4" cx="488" cy="54.4" rx="2.4" ry="1.7"/>
			<ellipse class="st4" cx="504.1" cy="54.4" rx="2.4" ry="1.7"/>
			<ellipse class="st4" cx="520.1" cy="54.4" rx="2.4" ry="1.7"/>
			<ellipse class="st4" cx="536.1" cy="54.4" rx="2.4" ry="1.7"/>
			<ellipse class="st4" cx="552.2" cy="54.4" rx="2.4" ry="1.7"/>
			<ellipse class="st4" cx="568.2" cy="54.4" rx="2.4" ry="1.7"/>
			<ellipse class="st4" cx="584.2" cy="54.4" rx="2.4" ry="1.7"/>
			<ellipse class="st4" cx="600.3" cy="54.4" rx="2.4" ry="1.7"/>
			<ellipse class="st4" cx="616.3" cy="54.4" rx="2.4" ry="1.7"/>
			<ellipse class="st4" cx="632.3" cy="54.4" rx="2.4" ry="1.7"/>
			<ellipse class="st4" cx="648.4" cy="54.4" rx="2.4" ry="1.7"/>
			<ellipse class="st4" cx="664.4" cy="54.4" rx="2.4" ry="1.7"/>
			<ellipse class="st4" cx="680.4" cy="54.4" rx="2.4" ry="1.7"/>
			<ellipse class="st4" cx="696.5" cy="54.4" rx="2.4" ry="1.7"/>
			<ellipse class="st4" cx="712.5" cy="54.4" rx="2.4" ry="1.7"/>
			<ellipse class="st4" cx="728.6" cy="54.4" rx="2.4" ry="1.7"/>
			<ellipse class="st4" cx="744.6" cy="54.4" rx="2.4" ry="1.7"/>
			<ellipse class="st4" cx="760.6" cy="54.4" rx="2.4" ry="1.7"/>
			<ellipse class="st4" cx="776.7" cy="54.4" rx="2.4" ry="1.7"/>
			<ellipse class="st4" cx="792.7" cy="54.4" rx="2.4" ry="1.7"/>
			<ellipse class="st4" cx="808.7" cy="54.4" rx="2.4" ry="1.7"/>
			<ellipse class="st4" cx="824.8" cy="54.4" rx="2.4" ry="1.7"/>
			<ellipse class="st4" cx="840.8" cy="54.4" rx="2.4" ry="1.7"/>
			<ellipse class="st4" cx="856.8" cy="54.4" rx="2.4" ry="1.7"/>
			<ellipse class="st4" cx="872.9" cy="54.4" rx="2.4" ry="1.7"/>
			<ellipse class="st4" cx="888.9" cy="54.4" rx="2.4" ry="1.7"/>
			<ellipse class="st4" cx="904.9" cy="54.4" rx="2.4" ry="1.7"/>
			<ellipse class="st4" cx="921" cy="54.4" rx="2.4" ry="1.7"/>
			<ellipse class="st4" cx="937" cy="54.4" rx="2.4" ry="1.7"/>
			<ellipse class="st4" cx="953.1" cy="54.4" rx="2.4" ry="1.7"/>
			<ellipse class="st4" cx="969.1" cy="54.4" rx="2.4" ry="1.7"/>
			<ellipse class="st4" cx="985.1" cy="54.4" rx="2.4" ry="1.7"/>
			<ellipse class="st4" cx="1001.2" cy="54.4" rx="2.4" ry="1.7"/>
			<ellipse class="st4" cx="1017.2" cy="54.4" rx="2.4" ry="1.7"/>
			<ellipse class="st4" cx="1033.2" cy="54.4" rx="2.4" ry="1.7"/>
			<ellipse class="st4" cx="1049.3" cy="54.4" rx="2.4" ry="1.7"/>
			<ellipse class="st4" cx="1065.3" cy="54.4" rx="2.4" ry="1.7"/>
			<ellipse class="st4" cx="1081.3" cy="54.4" rx="2.4" ry="1.7"/>
			<ellipse class="st4" cx="1097.4" cy="54.4" rx="2.4" ry="1.7"/>
			<ellipse class="st4" cx="1113.4" cy="54.4" rx="2.4" ry="1.7"/>
			<ellipse class="st4" cx="488" cy="65.8" rx="2.4" ry="1.7"/>
			<ellipse class="st4" cx="504.1" cy="65.8" rx="2.4" ry="1.7"/>
			<ellipse class="st4" cx="520.1" cy="65.8" rx="2.4" ry="1.7"/>
			<ellipse class="st4" cx="536.1" cy="65.8" rx="2.4" ry="1.7"/>
			<ellipse class="st4" cx="552.2" cy="65.8" rx="2.4" ry="1.7"/>
			<ellipse class="st4" cx="568.2" cy="65.8" rx="2.4" ry="1.7"/>
			<ellipse class="st4" cx="584.2" cy="65.8" rx="2.4" ry="1.7"/>
			<ellipse class="st4" cx="600.3" cy="65.8" rx="2.4" ry="1.7"/>
			<ellipse class="st4" cx="616.3" cy="65.8" rx="2.4" ry="1.7"/>
			<ellipse class="st4" cx="632.3" cy="65.8" rx="2.4" ry="1.7"/>
			<ellipse class="st4" cx="648.4" cy="65.8" rx="2.4" ry="1.7"/>
			<ellipse class="st4" cx="664.4" cy="65.8" rx="2.4" ry="1.7"/>
			<ellipse class="st4" cx="680.4" cy="65.8" rx="2.4" ry="1.7"/>
			<ellipse class="st4" cx="696.5" cy="65.8" rx="2.4" ry="1.7"/>
			<ellipse class="st4" cx="712.5" cy="65.8" rx="2.4" ry="1.7"/>
			<ellipse class="st4" cx="728.6" cy="65.8" rx="2.4" ry="1.7"/>
			<ellipse class="st4" cx="744.6" cy="65.8" rx="2.4" ry="1.7"/>
			<ellipse class="st4" cx="760.6" cy="65.8" rx="2.4" ry="1.7"/>
			<ellipse class="st4" cx="776.7" cy="65.8" rx="2.4" ry="1.7"/>
			<ellipse class="st4" cx="792.7" cy="65.8" rx="2.4" ry="1.7"/>
			<ellipse class="st4" cx="808.7" cy="65.8" rx="2.4" ry="1.7"/>
			<ellipse class="st4" cx="824.8" cy="65.8" rx="2.4" ry="1.7"/>
			<ellipse class="st4" cx="840.8" cy="65.8" rx="2.4" ry="1.7"/>
			<ellipse class="st4" cx="856.8" cy="65.8" rx="2.4" ry="1.7"/>
			<ellipse class="st4" cx="872.9" cy="65.8" rx="2.4" ry="1.7"/>
			<ellipse class="st4" cx="888.9" cy="65.8" rx="2.4" ry="1.7"/>
			<ellipse class="st4" cx="904.9" cy="65.8" rx="2.4" ry="1.7"/>
			<ellipse class="st4" cx="921" cy="65.8" rx="2.4" ry="1.7"/>
			<ellipse class="st4" cx="937" cy="65.8" rx="2.4" ry="1.7"/>
			<ellipse class="st4" cx="953.1" cy="65.8" rx="2.4" ry="1.7"/>
			<ellipse class="st4" cx="969.1" cy="65.8" rx="2.4" ry="1.7"/>
			<ellipse class="st4" cx="985.1" cy="65.8" rx="2.4" ry="1.7"/>
			<ellipse class="st4" cx="1001.2" cy="65.8" rx="2.4" ry="1.7"/>
			<ellipse class="st4" cx="1017.2" cy="65.8" rx="2.4" ry="1.7"/>
			<ellipse class="st4" cx="1033.2" cy="65.8" rx="2.4" ry="1.7"/>
			<ellipse class="st4" cx="1049.3" cy="65.8" rx="2.4" ry="1.7"/>
			<ellipse class="st4" cx="1065.3" cy="65.8" rx="2.4" ry="1.7"/>
			<ellipse class="st4" cx="1081.3" cy="65.8" rx="2.4" ry="1.7"/>
			<ellipse class="st4" cx="1097.4" cy="65.8" rx="2.4" ry="1.7"/>
			<ellipse class="st4" cx="1113.4" cy="65.8" rx="2.4" ry="1.7"/>
			<ellipse class="st4" cx="488" cy="77.1" rx="2.4" ry="1.7"/>
			<ellipse class="st4" cx="504.1" cy="77.1" rx="2.4" ry="1.7"/>
			<ellipse class="st4" cx="520.1" cy="77.1" rx="2.4" ry="1.7"/>
			<ellipse class="st4" cx="536.1" cy="77.1" rx="2.4" ry="1.7"/>
			<ellipse class="st4" cx="552.2" cy="77.1" rx="2.4" ry="1.7"/>
			<ellipse class="st4" cx="568.2" cy="77.1" rx="2.4" ry="1.7"/>
			<ellipse class="st4" cx="584.2" cy="77.1" rx="2.4" ry="1.7"/>
			<ellipse class="st4" cx="600.3" cy="77.1" rx="2.4" ry="1.7"/>
			<ellipse class="st4" cx="616.3" cy="77.1" rx="2.4" ry="1.7"/>
			<ellipse class="st4" cx="632.3" cy="77.1" rx="2.4" ry="1.7"/>
			<ellipse class="st4" cx="648.4" cy="77.1" rx="2.4" ry="1.7"/>
			<ellipse class="st4" cx="664.4" cy="77.1" rx="2.4" ry="1.7"/>
			<ellipse class="st4" cx="680.4" cy="77.1" rx="2.4" ry="1.7"/>
			<ellipse class="st4" cx="696.5" cy="77.1" rx="2.4" ry="1.7"/>
			<ellipse class="st4" cx="712.5" cy="77.1" rx="2.4" ry="1.7"/>
			<ellipse class="st4" cx="728.6" cy="77.1" rx="2.4" ry="1.7"/>
			<ellipse class="st4" cx="744.6" cy="77.1" rx="2.4" ry="1.7"/>
			<ellipse class="st4" cx="760.6" cy="77.1" rx="2.4" ry="1.7"/>
			<ellipse class="st4" cx="776.7" cy="77.1" rx="2.4" ry="1.7"/>
			<ellipse class="st4" cx="792.7" cy="77.1" rx="2.4" ry="1.7"/>
			<ellipse class="st4" cx="808.7" cy="77.1" rx="2.4" ry="1.7"/>
			<ellipse class="st4" cx="824.8" cy="77.1" rx="2.4" ry="1.7"/>
			<ellipse class="st4" cx="840.8" cy="77.1" rx="2.4" ry="1.7"/>
			<ellipse class="st4" cx="856.8" cy="77.1" rx="2.4" ry="1.7"/>
			<ellipse class="st4" cx="872.9" cy="77.1" rx="2.4" ry="1.7"/>
			<ellipse class="st4" cx="888.9" cy="77.1" rx="2.4" ry="1.7"/>
			<ellipse class="st4" cx="904.9" cy="77.1" rx="2.4" ry="1.7"/>
			<ellipse class="st4" cx="921" cy="77.1" rx="2.4" ry="1.7"/>
			<ellipse class="st4" cx="937" cy="77.1" rx="2.4" ry="1.7"/>
			<ellipse class="st4" cx="953.1" cy="77.1" rx="2.4" ry="1.7"/>
			<ellipse class="st4" cx="969.1" cy="77.1" rx="2.4" ry="1.7"/>
			<ellipse class="st4" cx="985.1" cy="77.1" rx="2.4" ry="1.7"/>
			<ellipse class="st4" cx="1001.2" cy="77.1" rx="2.4" ry="1.7"/>
			<ellipse class="st4" cx="1017.2" cy="77.1" rx="2.4" ry="1.7"/>
			<ellipse class="st4" cx="1033.2" cy="77.1" rx="2.4" ry="1.7"/>
			<ellipse class="st4" cx="1049.3" cy="77.1" rx="2.4" ry="1.7"/>
			<ellipse class="st4" cx="1065.3" cy="77.1" rx="2.4" ry="1.7"/>
			<ellipse class="st4" cx="1081.3" cy="77.1" rx="2.4" ry="1.7"/>
			<ellipse class="st4" cx="1097.4" cy="77.1" rx="2.4" ry="1.7"/>
			<ellipse class="st4" cx="1113.4" cy="77.1" rx="2.4" ry="1.7"/>
			<ellipse class="st4" cx="488" cy="88.4" rx="2.4" ry="1.7"/>
			<ellipse class="st4" cx="504.1" cy="88.4" rx="2.4" ry="1.7"/>
			<ellipse class="st4" cx="520.1" cy="88.4" rx="2.4" ry="1.7"/>
			<ellipse class="st4" cx="536.1" cy="88.4" rx="2.4" ry="1.7"/>
			<ellipse class="st4" cx="552.2" cy="88.4" rx="2.4" ry="1.7"/>
			<ellipse class="st4" cx="568.2" cy="88.4" rx="2.4" ry="1.7"/>
			<ellipse class="st4" cx="584.2" cy="88.4" rx="2.4" ry="1.7"/>
			<ellipse class="st4" cx="600.3" cy="88.4" rx="2.4" ry="1.7"/>
			<ellipse class="st4" cx="616.3" cy="88.4" rx="2.4" ry="1.7"/>
			<ellipse class="st4" cx="632.3" cy="88.4" rx="2.4" ry="1.7"/>
			<ellipse class="st4" cx="648.4" cy="88.4" rx="2.4" ry="1.7"/>
			<ellipse class="st4" cx="664.4" cy="88.4" rx="2.4" ry="1.7"/>
			<ellipse class="st4" cx="680.4" cy="88.4" rx="2.4" ry="1.7"/>
			<ellipse class="st4" cx="696.5" cy="88.4" rx="2.4" ry="1.7"/>
			<ellipse class="st4" cx="712.5" cy="88.4" rx="2.4" ry="1.7"/>
			<ellipse class="st4" cx="728.6" cy="88.4" rx="2.4" ry="1.7"/>
			<ellipse class="st4" cx="744.6" cy="88.4" rx="2.4" ry="1.7"/>
			<ellipse class="st4" cx="760.6" cy="88.4" rx="2.4" ry="1.7"/>
			<ellipse class="st4" cx="776.7" cy="88.4" rx="2.4" ry="1.7"/>
			<ellipse class="st4" cx="792.7" cy="88.4" rx="2.4" ry="1.7"/>
			<ellipse class="st4" cx="808.7" cy="88.4" rx="2.4" ry="1.7"/>
			<ellipse class="st4" cx="824.8" cy="88.4" rx="2.4" ry="1.7"/>
			<ellipse class="st4" cx="840.8" cy="88.4" rx="2.4" ry="1.7"/>
			<ellipse class="st4" cx="856.8" cy="88.4" rx="2.4" ry="1.7"/>
			<ellipse class="st4" cx="872.9" cy="88.4" rx="2.4" ry="1.7"/>
			<ellipse class="st4" cx="888.9" cy="88.4" rx="2.4" ry="1.7"/>
			<ellipse class="st4" cx="904.9" cy="88.4" rx="2.4" ry="1.7"/>
			<ellipse class="st4" cx="921" cy="88.4" rx="2.4" ry="1.7"/>
			<ellipse class="st4" cx="937" cy="88.4" rx="2.4" ry="1.7"/>
			<ellipse class="st4" cx="953.1" cy="88.4" rx="2.4" ry="1.7"/>
			<ellipse class="st4" cx="969.1" cy="88.4" rx="2.4" ry="1.7"/>
			<ellipse class="st4" cx="985.1" cy="88.4" rx="2.4" ry="1.7"/>
			<ellipse class="st4" cx="1001.2" cy="88.4" rx="2.4" ry="1.7"/>
			<ellipse class="st4" cx="1017.2" cy="88.4" rx="2.4" ry="1.7"/>
			<ellipse class="st4" cx="1033.2" cy="88.4" rx="2.4" ry="1.7"/>
			<ellipse class="st4" cx="1049.3" cy="88.4" rx="2.4" ry="1.7"/>
			<ellipse class="st4" cx="1065.3" cy="88.4" rx="2.4" ry="1.7"/>
			<ellipse class="st4" cx="1081.3" cy="88.4" rx="2.4" ry="1.7"/>
			<ellipse class="st4" cx="1097.4" cy="88.4" rx="2.4" ry="1.7"/>
			<ellipse class="st4" cx="1113.4" cy="88.4" rx="2.4" ry="1.7"/>
			<ellipse class="st4" cx="488" cy="99.7" rx="2.4" ry="1.7"/>
			<ellipse class="st4" cx="504.1" cy="99.7" rx="2.4" ry="1.7"/>
			<ellipse class="st4" cx="520.1" cy="99.7" rx="2.4" ry="1.7"/>
			<ellipse class="st4" cx="536.1" cy="99.7" rx="2.4" ry="1.7"/>
			<ellipse class="st4" cx="552.2" cy="99.7" rx="2.4" ry="1.7"/>
			<ellipse class="st4" cx="568.2" cy="99.7" rx="2.4" ry="1.7"/>
			<ellipse class="st4" cx="584.2" cy="99.7" rx="2.4" ry="1.7"/>
			<ellipse class="st4" cx="600.3" cy="99.7" rx="2.4" ry="1.7"/>
			<ellipse class="st4" cx="616.3" cy="99.7" rx="2.4" ry="1.7"/>
			<ellipse class="st4" cx="632.3" cy="99.7" rx="2.4" ry="1.7"/>
			<ellipse class="st4" cx="648.4" cy="99.7" rx="2.4" ry="1.7"/>
			<ellipse class="st4" cx="664.4" cy="99.7" rx="2.4" ry="1.7"/>
			<ellipse class="st4" cx="680.4" cy="99.7" rx="2.4" ry="1.7"/>
			<ellipse class="st4" cx="696.5" cy="99.7" rx="2.4" ry="1.7"/>
			<ellipse class="st4" cx="712.5" cy="99.7" rx="2.4" ry="1.7"/>
			<ellipse class="st4" cx="728.6" cy="99.7" rx="2.4" ry="1.7"/>
			<ellipse class="st4" cx="744.6" cy="99.7" rx="2.4" ry="1.7"/>
			<ellipse class="st4" cx="760.6" cy="99.7" rx="2.4" ry="1.7"/>
			<ellipse class="st4" cx="776.7" cy="99.7" rx="2.4" ry="1.7"/>
			<ellipse class="st4" cx="792.7" cy="99.7" rx="2.4" ry="1.7"/>
			<ellipse class="st4" cx="808.7" cy="99.7" rx="2.4" ry="1.7"/>
			<ellipse class="st4" cx="824.8" cy="99.7" rx="2.4" ry="1.7"/>
			<ellipse class="st4" cx="840.8" cy="99.7" rx="2.4" ry="1.7"/>
			<ellipse class="st4" cx="856.8" cy="99.7" rx="2.4" ry="1.7"/>
			<ellipse class="st4" cx="872.9" cy="99.7" rx="2.4" ry="1.7"/>
			<ellipse class="st4" cx="888.9" cy="99.7" rx="2.4" ry="1.7"/>
			<ellipse class="st4" cx="904.9" cy="99.7" rx="2.4" ry="1.7"/>
			<ellipse class="st4" cx="921" cy="99.7" rx="2.4" ry="1.7"/>
			<ellipse class="st4" cx="937" cy="99.7" rx="2.4" ry="1.7"/>
			<ellipse class="st4" cx="953.1" cy="99.7" rx="2.4" ry="1.7"/>
			<ellipse class="st4" cx="969.1" cy="99.7" rx="2.4" ry="1.7"/>
			<ellipse class="st4" cx="985.1" cy="99.7" rx="2.4" ry="1.7"/>
			<ellipse class="st4" cx="1001.2" cy="99.7" rx="2.4" ry="1.7"/>
			<ellipse class="st4" cx="1017.2" cy="99.7" rx="2.4" ry="1.7"/>
			<ellipse class="st4" cx="1033.2" cy="99.7" rx="2.4" ry="1.7"/>
			<ellipse class="st4" cx="1049.3" cy="99.7" rx="2.4" ry="1.7"/>
			<ellipse class="st4" cx="1065.3" cy="99.7" rx="2.4" ry="1.7"/>
			<ellipse class="st4" cx="1081.3" cy="99.7" rx="2.4" ry="1.7"/>
			<ellipse class="st4" cx="1097.4" cy="99.7" rx="2.4" ry="1.7"/>
			<ellipse class="st4" cx="1113.4" cy="99.7" rx="2.4" ry="1.7"/>
			<ellipse class="st4" cx="488" cy="111" rx="2.4" ry="1.7"/>
			<ellipse class="st4" cx="504.1" cy="111" rx="2.4" ry="1.7"/>
			<ellipse class="st4" cx="520.1" cy="111" rx="2.4" ry="1.7"/>
			<ellipse class="st4" cx="536.1" cy="111" rx="2.4" ry="1.7"/>
			<ellipse class="st4" cx="552.2" cy="111" rx="2.4" ry="1.7"/>
			<ellipse class="st4" cx="568.2" cy="111" rx="2.4" ry="1.7"/>
			<ellipse class="st4" cx="584.2" cy="111" rx="2.4" ry="1.7"/>
			<ellipse class="st4" cx="600.3" cy="111" rx="2.4" ry="1.7"/>
			<ellipse class="st4" cx="616.3" cy="111" rx="2.4" ry="1.7"/>
			<ellipse class="st4" cx="632.3" cy="111" rx="2.4" ry="1.7"/>
			<ellipse class="st4" cx="648.4" cy="111" rx="2.4" ry="1.7"/>
			<ellipse class="st4" cx="664.4" cy="111" rx="2.4" ry="1.7"/>
			<ellipse class="st4" cx="680.4" cy="111" rx="2.4" ry="1.7"/>
			<ellipse class="st4" cx="696.5" cy="111" rx="2.4" ry="1.7"/>
			<ellipse class="st4" cx="712.5" cy="111" rx="2.4" ry="1.7"/>
			<ellipse class="st4" cx="728.6" cy="111" rx="2.4" ry="1.7"/>
			<ellipse class="st4" cx="744.6" cy="111" rx="2.4" ry="1.7"/>
			<ellipse class="st4" cx="760.6" cy="111" rx="2.4" ry="1.7"/>
			<ellipse class="st4" cx="776.7" cy="111" rx="2.4" ry="1.7"/>
			<ellipse class="st4" cx="792.7" cy="111" rx="2.4" ry="1.7"/>
			<ellipse class="st4" cx="808.7" cy="111" rx="2.4" ry="1.7"/>
			<ellipse class="st4" cx="824.8" cy="111" rx="2.4" ry="1.7"/>
			<ellipse class="st4" cx="840.8" cy="111" rx="2.4" ry="1.7"/>
			<ellipse class="st4" cx="856.8" cy="111" rx="2.4" ry="1.7"/>
			<ellipse class="st4" cx="872.9" cy="111" rx="2.4" ry="1.7"/>
			<ellipse class="st4" cx="888.9" cy="111" rx="2.4" ry="1.7"/>
			<ellipse class="st4" cx="904.9" cy="111" rx="2.4" ry="1.7"/>
			<ellipse class="st4" cx="921" cy="111" rx="2.4" ry="1.7"/>
			<ellipse class="st4" cx="937" cy="111" rx="2.4" ry="1.7"/>
			<ellipse class="st4" cx="953.1" cy="111" rx="2.4" ry="1.7"/>
			<ellipse class="st4" cx="969.1" cy="111" rx="2.4" ry="1.7"/>
			<ellipse class="st4" cx="985.1" cy="111" rx="2.4" ry="1.7"/>
			<ellipse class="st4" cx="1001.2" cy="111" rx="2.4" ry="1.7"/>
			<ellipse class="st4" cx="1017.2" cy="111" rx="2.4" ry="1.7"/>
			<ellipse class="st4" cx="1033.2" cy="111" rx="2.4" ry="1.7"/>
			<ellipse class="st4" cx="1049.3" cy="111" rx="2.4" ry="1.7"/>
			<ellipse class="st4" cx="1065.3" cy="111" rx="2.4" ry="1.7"/>
			<ellipse class="st4" cx="1081.3" cy="111" rx="2.4" ry="1.7"/>
			<ellipse class="st4" cx="1097.4" cy="111" rx="2.4" ry="1.7"/>
			<ellipse class="st4" cx="1113.4" cy="111" rx="2.4" ry="1.7"/>
		</g>
		<g>
			<ellipse class="st4" cx="53.8" cy="464.3" rx="2.4" ry="1.7"/>
			<ellipse class="st4" cx="69.8" cy="464.3" rx="2.4" ry="1.7"/>
			<ellipse class="st4" cx="85.9" cy="464.3" rx="2.4" ry="1.7"/>
			<ellipse class="st4" cx="101.9" cy="464.3" rx="2.4" ry="1.7"/>
			<ellipse class="st4" cx="117.9" cy="464.3" rx="2.4" ry="1.7"/>
			<ellipse class="st4" cx="134" cy="464.3" rx="2.4" ry="1.7"/>
			<ellipse class="st4" cx="150" cy="464.3" rx="2.4" ry="1.7"/>
			<ellipse class="st4" cx="166" cy="464.3" rx="2.4" ry="1.7"/>
			<ellipse class="st4" cx="182.1" cy="464.3" rx="2.4" ry="1.7"/>
			<ellipse class="st4" cx="198.1" cy="464.3" rx="2.4" ry="1.7"/>
			<ellipse class="st4" cx="214.1" cy="464.3" rx="2.4" ry="1.7"/>
			<ellipse class="st4" cx="230.2" cy="464.3" rx="2.4" ry="1.7"/>
			<ellipse class="st4" cx="246.2" cy="464.3" rx="2.4" ry="1.7"/>
			<ellipse class="st4" cx="262.3" cy="464.3" rx="2.4" ry="1.7"/>
			<ellipse class="st4" cx="278.3" cy="464.3" rx="2.4" ry="1.7"/>
			<ellipse class="st4" cx="294.3" cy="464.3" rx="2.4" ry="1.7"/>
			<ellipse class="st4" cx="310.4" cy="464.3" rx="2.4" ry="1.7"/>
			<ellipse class="st4" cx="326.4" cy="464.3" rx="2.4" ry="1.7"/>
			<ellipse class="st4" cx="342.4" cy="464.3" rx="2.4" ry="1.7"/>
			<ellipse class="st4" cx="358.5" cy="464.3" rx="2.4" ry="1.7"/>
			<ellipse class="st4" cx="374.5" cy="464.3" rx="2.4" ry="1.7"/>
			<ellipse class="st4" cx="390.5" cy="464.3" rx="2.4" ry="1.7"/>
			<ellipse class="st4" cx="406.6" cy="464.3" rx="2.4" ry="1.7"/>
			<ellipse class="st4" cx="422.6" cy="464.3" rx="2.4" ry="1.7"/>
			<ellipse class="st4" cx="438.6" cy="464.3" rx="2.4" ry="1.7"/>
			<ellipse class="st4" cx="454.7" cy="464.3" rx="2.4" ry="1.7"/>
			<ellipse class="st4" cx="470.7" cy="464.3" rx="2.4" ry="1.7"/>
			<ellipse class="st4" cx="486.8" cy="464.3" rx="2.4" ry="1.7"/>
			<ellipse class="st4" cx="502.8" cy="464.3" rx="2.4" ry="1.7"/>
			<ellipse class="st4" cx="518.8" cy="464.3" rx="2.4" ry="1.7"/>
			<ellipse class="st4" cx="534.9" cy="464.3" rx="2.4" ry="1.7"/>
			<ellipse class="st4" cx="550.9" cy="464.3" rx="2.4" ry="1.7"/>
			<ellipse class="st4" cx="566.9" cy="464.3" rx="2.4" ry="1.7"/>
			<ellipse class="st4" cx="583" cy="464.3" rx="2.4" ry="1.7"/>
			<ellipse class="st4" cx="599" cy="464.3" rx="2.4" ry="1.7"/>
			<ellipse class="st4" cx="615" cy="464.3" rx="2.4" ry="1.7"/>
			<ellipse class="st4" cx="631.1" cy="464.3" rx="2.4" ry="1.7"/>
			<ellipse class="st4" cx="647.1" cy="464.3" rx="2.4" ry="1.7"/>
			<ellipse class="st4" cx="663.1" cy="464.3" rx="2.4" ry="1.7"/>
			<ellipse class="st4" cx="679.2" cy="464.3" rx="2.4" ry="1.7"/>
			<ellipse class="st4" cx="695.2" cy="464.3" rx="2.4" ry="1.7"/>
			<ellipse class="st4" cx="711.3" cy="464.3" rx="2.4" ry="1.7"/>
			<ellipse class="st4" cx="727.3" cy="464.3" rx="2.4" ry="1.7"/>
			<ellipse class="st4" cx="53.8" cy="475.7" rx="2.4" ry="1.7"/>
			<ellipse class="st4" cx="69.8" cy="475.7" rx="2.4" ry="1.7"/>
			<ellipse class="st4" cx="85.9" cy="475.7" rx="2.4" ry="1.7"/>
			<ellipse class="st4" cx="101.9" cy="475.7" rx="2.4" ry="1.7"/>
			<ellipse class="st4" cx="117.9" cy="475.7" rx="2.4" ry="1.7"/>
			<ellipse class="st4" cx="134" cy="475.7" rx="2.4" ry="1.7"/>
			<ellipse class="st4" cx="150" cy="475.7" rx="2.4" ry="1.7"/>
			<ellipse class="st4" cx="166" cy="475.7" rx="2.4" ry="1.7"/>
			<ellipse class="st4" cx="182.1" cy="475.7" rx="2.4" ry="1.7"/>
			<ellipse class="st4" cx="198.1" cy="475.7" rx="2.4" ry="1.7"/>
			<ellipse class="st4" cx="214.1" cy="475.7" rx="2.4" ry="1.7"/>
			<ellipse class="st4" cx="230.2" cy="475.7" rx="2.4" ry="1.7"/>
			<ellipse class="st4" cx="246.2" cy="475.7" rx="2.4" ry="1.7"/>
			<ellipse class="st4" cx="262.3" cy="475.7" rx="2.4" ry="1.7"/>
			<ellipse class="st4" cx="278.3" cy="475.7" rx="2.4" ry="1.7"/>
			<ellipse class="st4" cx="294.3" cy="475.7" rx="2.4" ry="1.7"/>
			<ellipse class="st4" cx="310.4" cy="475.7" rx="2.4" ry="1.7"/>
			<ellipse class="st4" cx="326.4" cy="475.7" rx="2.4" ry="1.7"/>
			<ellipse class="st4" cx="342.4" cy="475.7" rx="2.4" ry="1.7"/>
			<ellipse class="st4" cx="358.5" cy="475.7" rx="2.4" ry="1.7"/>
			<ellipse class="st4" cx="374.5" cy="475.7" rx="2.4" ry="1.7"/>
			<ellipse class="st4" cx="390.5" cy="475.7" rx="2.4" ry="1.7"/>
			<ellipse class="st4" cx="406.6" cy="475.7" rx="2.4" ry="1.7"/>
			<ellipse class="st4" cx="422.6" cy="475.7" rx="2.4" ry="1.7"/>
			<ellipse class="st4" cx="438.6" cy="475.7" rx="2.4" ry="1.7"/>
			<ellipse class="st4" cx="454.7" cy="475.7" rx="2.4" ry="1.7"/>
			<ellipse class="st4" cx="470.7" cy="475.7" rx="2.4" ry="1.7"/>
			<ellipse class="st4" cx="486.8" cy="475.7" rx="2.4" ry="1.7"/>
			<ellipse class="st4" cx="502.8" cy="475.7" rx="2.4" ry="1.7"/>
			<ellipse class="st4" cx="518.8" cy="475.7" rx="2.4" ry="1.7"/>
			<ellipse class="st4" cx="534.9" cy="475.7" rx="2.4" ry="1.7"/>
			<ellipse class="st4" cx="550.9" cy="475.7" rx="2.4" ry="1.7"/>
			<ellipse class="st4" cx="566.9" cy="475.7" rx="2.4" ry="1.7"/>
			<ellipse class="st4" cx="583" cy="475.7" rx="2.4" ry="1.7"/>
			<ellipse class="st4" cx="599" cy="475.7" rx="2.4" ry="1.7"/>
			<ellipse class="st4" cx="615" cy="475.7" rx="2.4" ry="1.7"/>
			<ellipse class="st4" cx="631.1" cy="475.7" rx="2.4" ry="1.7"/>
			<ellipse class="st4" cx="647.1" cy="475.7" rx="2.4" ry="1.7"/>
			<ellipse class="st4" cx="663.1" cy="475.7" rx="2.4" ry="1.7"/>
			<ellipse class="st4" cx="679.2" cy="475.7" rx="2.4" ry="1.7"/>
			<ellipse class="st4" cx="695.2" cy="475.7" rx="2.4" ry="1.7"/>
			<ellipse class="st4" cx="711.3" cy="475.7" rx="2.4" ry="1.7"/>
			<ellipse class="st4" cx="727.3" cy="475.7" rx="2.4" ry="1.7"/>
			<ellipse class="st4" cx="53.8" cy="487" rx="2.4" ry="1.7"/>
			<ellipse class="st4" cx="69.8" cy="487" rx="2.4" ry="1.7"/>
			<ellipse class="st4" cx="85.9" cy="487" rx="2.4" ry="1.7"/>
			<ellipse class="st4" cx="101.9" cy="487" rx="2.4" ry="1.7"/>
			<ellipse class="st4" cx="117.9" cy="487" rx="2.4" ry="1.7"/>
			<ellipse class="st4" cx="134" cy="487" rx="2.4" ry="1.7"/>
			<ellipse class="st4" cx="150" cy="487" rx="2.4" ry="1.7"/>
			<ellipse class="st4" cx="166" cy="487" rx="2.4" ry="1.7"/>
			<ellipse class="st4" cx="182.1" cy="487" rx="2.4" ry="1.7"/>
			<ellipse class="st4" cx="198.1" cy="487" rx="2.4" ry="1.7"/>
			<ellipse class="st4" cx="214.1" cy="487" rx="2.4" ry="1.7"/>
			<ellipse class="st4" cx="230.2" cy="487" rx="2.4" ry="1.7"/>
			<ellipse class="st4" cx="246.2" cy="487" rx="2.4" ry="1.7"/>
			<ellipse class="st4" cx="262.3" cy="487" rx="2.4" ry="1.7"/>
			<ellipse class="st4" cx="278.3" cy="487" rx="2.4" ry="1.7"/>
			<ellipse class="st4" cx="294.3" cy="487" rx="2.4" ry="1.7"/>
			<ellipse class="st4" cx="310.4" cy="487" rx="2.4" ry="1.7"/>
			<ellipse class="st4" cx="326.4" cy="487" rx="2.4" ry="1.7"/>
			<ellipse class="st4" cx="342.4" cy="487" rx="2.4" ry="1.7"/>
			<ellipse class="st4" cx="358.5" cy="487" rx="2.4" ry="1.7"/>
			<ellipse class="st4" cx="374.5" cy="487" rx="2.4" ry="1.7"/>
			<ellipse class="st4" cx="390.5" cy="487" rx="2.4" ry="1.7"/>
			<ellipse class="st4" cx="406.6" cy="487" rx="2.4" ry="1.7"/>
			<ellipse class="st4" cx="422.6" cy="487" rx="2.4" ry="1.7"/>
			<ellipse class="st4" cx="438.6" cy="487" rx="2.4" ry="1.7"/>
			<ellipse class="st4" cx="454.7" cy="487" rx="2.4" ry="1.7"/>
			<ellipse class="st4" cx="470.7" cy="487" rx="2.4" ry="1.7"/>
			<ellipse class="st4" cx="486.8" cy="487" rx="2.4" ry="1.7"/>
			<ellipse class="st4" cx="502.8" cy="487" rx="2.4" ry="1.7"/>
			<ellipse class="st4" cx="518.8" cy="487" rx="2.4" ry="1.7"/>
			<ellipse class="st4" cx="534.9" cy="487" rx="2.4" ry="1.7"/>
			<ellipse class="st4" cx="550.9" cy="487" rx="2.4" ry="1.7"/>
			<ellipse class="st4" cx="566.9" cy="487" rx="2.4" ry="1.7"/>
			<ellipse class="st4" cx="583" cy="487" rx="2.4" ry="1.7"/>
			<ellipse class="st4" cx="599" cy="487" rx="2.4" ry="1.7"/>
			<ellipse class="st4" cx="615" cy="487" rx="2.4" ry="1.7"/>
			<ellipse class="st4" cx="631.1" cy="487" rx="2.4" ry="1.7"/>
			<ellipse class="st4" cx="647.1" cy="487" rx="2.4" ry="1.7"/>
			<ellipse class="st4" cx="663.1" cy="487" rx="2.4" ry="1.7"/>
			<ellipse class="st4" cx="679.2" cy="487" rx="2.4" ry="1.7"/>
			<ellipse class="st4" cx="695.2" cy="487" rx="2.4" ry="1.7"/>
			<ellipse class="st4" cx="711.3" cy="487" rx="2.4" ry="1.7"/>
			<ellipse class="st4" cx="727.3" cy="487" rx="2.4" ry="1.7"/>
			<ellipse class="st4" cx="53.8" cy="498.3" rx="2.4" ry="1.7"/>
			<ellipse class="st4" cx="69.8" cy="498.3" rx="2.4" ry="1.7"/>
			<ellipse class="st4" cx="85.9" cy="498.3" rx="2.4" ry="1.7"/>
			<ellipse class="st4" cx="101.9" cy="498.3" rx="2.4" ry="1.7"/>
			<ellipse class="st4" cx="117.9" cy="498.3" rx="2.4" ry="1.7"/>
			<ellipse class="st4" cx="134" cy="498.3" rx="2.4" ry="1.7"/>
			<ellipse class="st4" cx="150" cy="498.3" rx="2.4" ry="1.7"/>
			<ellipse class="st4" cx="166" cy="498.3" rx="2.4" ry="1.7"/>
			<ellipse class="st4" cx="182.1" cy="498.3" rx="2.4" ry="1.7"/>
			<ellipse class="st4" cx="198.1" cy="498.3" rx="2.4" ry="1.7"/>
			<ellipse class="st4" cx="214.1" cy="498.3" rx="2.4" ry="1.7"/>
			<ellipse class="st4" cx="230.2" cy="498.3" rx="2.4" ry="1.7"/>
			<ellipse class="st4" cx="246.2" cy="498.3" rx="2.4" ry="1.7"/>
			<ellipse class="st4" cx="262.3" cy="498.3" rx="2.4" ry="1.7"/>
			<ellipse class="st4" cx="278.3" cy="498.3" rx="2.4" ry="1.7"/>
			<ellipse class="st4" cx="294.3" cy="498.3" rx="2.4" ry="1.7"/>
			<ellipse class="st4" cx="310.4" cy="498.3" rx="2.4" ry="1.7"/>
			<ellipse class="st4" cx="326.4" cy="498.3" rx="2.4" ry="1.7"/>
			<ellipse class="st4" cx="342.4" cy="498.3" rx="2.4" ry="1.7"/>
			<ellipse class="st4" cx="358.5" cy="498.3" rx="2.4" ry="1.7"/>
			<ellipse class="st4" cx="374.5" cy="498.3" rx="2.4" ry="1.7"/>
			<ellipse class="st4" cx="390.5" cy="498.3" rx="2.4" ry="1.7"/>
			<ellipse class="st4" cx="406.6" cy="498.3" rx="2.4" ry="1.7"/>
			<ellipse class="st4" cx="422.6" cy="498.3" rx="2.4" ry="1.7"/>
			<ellipse class="st4" cx="438.6" cy="498.3" rx="2.4" ry="1.7"/>
			<ellipse class="st4" cx="454.7" cy="498.3" rx="2.4" ry="1.7"/>
			<ellipse class="st4" cx="470.7" cy="498.3" rx="2.4" ry="1.7"/>
			<ellipse class="st4" cx="486.8" cy="498.3" rx="2.4" ry="1.7"/>
			<ellipse class="st4" cx="502.8" cy="498.3" rx="2.4" ry="1.7"/>
			<ellipse class="st4" cx="518.8" cy="498.3" rx="2.4" ry="1.7"/>
			<ellipse class="st4" cx="534.9" cy="498.3" rx="2.4" ry="1.7"/>
			<ellipse class="st4" cx="550.9" cy="498.3" rx="2.4" ry="1.7"/>
			<ellipse class="st4" cx="566.9" cy="498.3" rx="2.4" ry="1.7"/>
			<ellipse class="st4" cx="583" cy="498.3" rx="2.4" ry="1.7"/>
			<ellipse class="st4" cx="599" cy="498.3" rx="2.4" ry="1.7"/>
			<ellipse class="st4" cx="615" cy="498.3" rx="2.4" ry="1.7"/>
			<ellipse class="st4" cx="631.1" cy="498.3" rx="2.4" ry="1.7"/>
			<ellipse class="st4" cx="647.1" cy="498.3" rx="2.4" ry="1.7"/>
			<ellipse class="st4" cx="663.1" cy="498.3" rx="2.4" ry="1.7"/>
			<ellipse class="st4" cx="679.2" cy="498.3" rx="2.4" ry="1.7"/>
			<ellipse class="st4" cx="695.2" cy="498.3" rx="2.4" ry="1.7"/>
			<ellipse class="st4" cx="711.3" cy="498.3" rx="2.4" ry="1.7"/>
			<ellipse class="st4" cx="727.3" cy="498.3" rx="2.4" ry="1.7"/>
		</g>
	</g>
</g>
</svg>
