<?xml version="1.0" encoding="utf-8"?>
<!-- Generator: Adobe Illustrator 24.2.3, SVG Export Plug-In . SVG Version: 6.00 Build 0)  -->
<svg version="1.1" id="Layer_2" xmlns="http://www.w3.org/2000/svg" xmlns:xlink="http://www.w3.org/1999/xlink" x="0px" y="0px"
	 viewBox="0 0 139.61 129.89" style="enable-background:new 0 0 139.61 129.89;" xml:space="preserve">
<style type="text/css">
	.st0{fill:#0AA4F4;}
	.st1{fill:#FFFFFF;}
</style>
<g>
	<g>
		<path class="st0" d="M116.74,0.28V0.04h-2.96C113.24,0.01,112.69,0,112.14,0c0,0,0,0.01,0,0.04H27.48c0-0.02,0-0.04,0-0.04
			c-0.56,0-1.1,0.01-1.65,0.04h-0.71l0,0.04C9.68,1.01,0,11.13,0,23.57c0,13.06,0,53.46,0,53.46c0,12.61,9.91,23.72,24.18,23.72
			c0.14,0,0.27-0.01,0.41-0.03h29.42c2.4,0,3.25,0.63,2.15,5.94c-1.1,5.31-5.06,23.22-5.06,23.22s38.94-26.23,40.59-27.38
			c0.64-0.44,1.19-1.12,1.62-1.78h21.72c0.13,0.02,0.27,0.03,0.41,0.03c0.44,0,0.87-0.01,1.29-0.03h0.01v0
			c13.56-0.65,22.87-11.47,22.87-23.69c0,0,0-40.39,0-53.46C139.61,11.75,130.88,2.01,116.74,0.28z"/>
	</g>
	<g>
		<path class="st1" d="M34.79,87.93c-1.3,1.79-2.67,3.29-4.11,4.51c-1.44,1.22-2.88,2.11-4.34,2.68c-1.46,0.57-2.87,0.86-4.24,0.86
			c-1.37,0-2.62-0.31-3.74-0.93c-1.13-0.62-2.11-1.55-2.95-2.78c-0.84-1.24-1.51-2.76-2.02-4.57c-0.51-1.81-0.76-3.93-0.76-6.36
			c0-4.15,0.57-8.25,1.72-12.29c1.15-4.04,2.76-7.68,4.84-10.9c2.08-3.22,4.54-5.82,7.39-7.79c2.85-1.97,6-2.95,9.44-2.95
			c1.06,0,2.08,0.22,3.05,0.66c0.97,0.44,1.81,1.06,2.52,1.86c0.71,0.8,1.27,1.77,1.69,2.92c0.42,1.15,0.63,2.43,0.63,3.84
			c0,0.27,0,0.54,0,0.83c0,0.29-0.02,0.59-0.07,0.89l-8.68,2.32c-0.53-1.1-1.15-1.66-1.86-1.66c-0.71,0-1.45,0.41-2.22,1.23
			c-0.77,0.82-1.54,1.88-2.29,3.18c-0.75,1.3-1.48,2.76-2.19,4.37c-0.71,1.61-1.33,3.24-1.86,4.87c-0.53,1.63-0.96,3.19-1.29,4.67
			c-0.33,1.48-0.5,2.68-0.5,3.61c0,1.41,0.19,2.41,0.56,2.98c0.37,0.57,0.87,0.86,1.49,0.86c0.49,0,1.04-0.19,1.66-0.56
			c0.62-0.37,1.19-0.86,1.72-1.46c0.53-0.6,1.02-1.27,1.46-2.02c0.44-0.75,0.75-1.5,0.93-2.25l7.55,3.05
			C37.27,84.03,36.09,86.14,34.79,87.93z"/>
		<path class="st1" d="M38,95.98c1.24-6.18,2.43-12.21,3.58-18.09c0.44-2.52,0.9-5.14,1.39-7.85c0.49-2.72,0.94-5.4,1.36-8.05
			c0.42-2.65,0.82-5.22,1.19-7.72c0.37-2.5,0.67-4.76,0.89-6.79c1.02,0.04,1.95,0.1,2.82,0.17c0.86,0.07,1.71,0.12,2.55,0.17
			c0.84,0.04,1.69,0.08,2.55,0.1c0.86,0.02,1.8,0.03,2.82,0.03c-0.75,3.14-1.49,6.27-2.22,9.41c-0.73,3.14-1.4,6.3-2.02,9.48
			l6.56-0.73c0.62-3.14,1.17-6.17,1.66-9.11c0.49-2.94,1.13-5.97,1.92-9.11c1.02-0.18,2.14-0.32,3.38-0.43
			c1.24-0.11,2.39-0.21,3.45-0.3c1.06-0.09,2.32-0.2,3.78-0.33c-0.62,1.99-1.2,4.16-1.76,6.53c-0.55,2.36-1.09,4.82-1.62,7.36
			c-0.53,2.54-1.04,5.11-1.52,7.72c-0.49,2.61-0.93,5.08-1.33,7.42c-0.97,5.61-1.88,11.35-2.72,17.23l-10.34,1.19
			c0.57-2.65,1.08-5.24,1.52-7.75c0.44-2.12,0.89-4.33,1.36-6.63c0.46-2.3,0.83-4.26,1.09-5.9l-6.43,0.6
			c-0.31,1.68-0.67,3.62-1.09,5.83c-0.42,2.21-0.81,4.31-1.16,6.3c-0.49,2.39-0.97,4.77-1.46,7.16L38,95.98z"/>
		<path class="st1" d="M87.43,95.12c-1.33,0.22-2.52,0.42-3.58,0.6c0.18-1.46,0.35-2.89,0.53-4.31c0.13-1.24,0.25-2.47,0.36-3.71
			c0.11-1.24,0.21-2.3,0.3-3.18h-5.77l-2.65,9.54c-0.97,0.13-2.12,0.28-3.45,0.43c-1.33,0.16-2.56,0.3-3.71,0.43
			c-1.41,0.18-2.8,0.35-4.17,0.53c1.77-5.88,3.51-11.66,5.23-17.36c0.71-2.39,1.45-4.88,2.22-7.49c0.77-2.61,1.55-5.2,2.32-7.79
			c0.77-2.58,1.51-5.07,2.22-7.45c0.71-2.39,1.33-4.57,1.86-6.56c3-0.22,6.06-0.48,9.18-0.8c3.11-0.31,6.15-0.73,9.11-1.26
			c-0.13,1.41-0.28,3.17-0.43,5.27c-0.16,2.1-0.3,4.39-0.43,6.86c-0.13,2.47-0.26,5.06-0.4,7.75c-0.13,2.69-0.27,5.35-0.4,7.95
			c-0.22,6.1-0.46,12.57-0.73,19.42c-1.33,0.22-2.65,0.4-3.98,0.53C89.97,94.7,88.76,94.9,87.43,95.12z M80.87,77.89
			c0.18,0,0.5-0.01,0.96-0.03c0.46-0.02,0.95-0.04,1.46-0.07c0.51-0.02,0.98-0.04,1.42-0.07c0.44-0.02,0.75-0.05,0.93-0.1
			c0-0.26,0.03-0.72,0.1-1.36c0.07-0.64,0.13-1.37,0.2-2.19c0.07-0.82,0.14-1.71,0.23-2.68c0.09-0.97,0.18-1.92,0.27-2.85
			c0.18-2.25,0.4-4.68,0.66-7.29l0.4-5.77l-0.99,0.07l-1.52,5.7L80.87,77.89z"/>
		<path class="st1" d="M101.35,95.91c1.02-4.86,1.99-9.65,2.92-14.38c0.4-1.99,0.8-4.06,1.19-6.23c0.4-2.16,0.78-4.3,1.16-6.39
			c0.37-2.1,0.71-4.13,0.99-6.1c0.29-1.96,0.54-3.77,0.76-5.4c-1.02-0.13-2.04-0.18-3.08-0.13c-1.04,0.04-2.07-0.09-3.08-0.4
			c0.04-0.71,0.07-1.52,0.07-2.45s0.02-1.86,0.07-2.78c0.04-1.02,0.09-2.1,0.13-3.25c1.15,0.09,2.3,0.16,3.45,0.2
			c1.15,0.04,2.3,0.07,3.45,0.07c2.25,0,4.43-0.05,6.53-0.17c2.1-0.11,4.04-0.24,5.83-0.4c1.79-0.15,3.55-0.34,5.27-0.56l-0.73,3.58
			c-0.22,1.02-0.43,2.05-0.63,3.11c-0.2,1.06-0.39,1.97-0.56,2.72c-0.97,0.26-1.95,0.45-2.95,0.56c-0.99,0.11-1.98,0.25-2.95,0.43
			c-0.31,1.5-0.64,3.17-0.99,5c-0.35,1.83-0.7,3.73-1.03,5.7c-0.33,1.97-0.65,3.97-0.96,6c-0.31,2.03-0.62,3.98-0.93,5.83
			c-0.71,4.37-1.37,8.9-1.99,13.59L101.35,95.91z"/>
	</g>
	<g>
		<g>
			<path class="st1" d="M20.24,42.44c-1.02,0.06-2.05,0.15-3.09,0.27c-1.04,0.12-2.05,0.27-3.05,0.47
				c-0.99,0.19-1.89,0.42-2.69,0.69c0.18-1.33,0.38-2.82,0.62-4.45c0.24-1.63,0.51-3.32,0.82-5.07c0.31-1.75,0.62-3.51,0.93-5.29
				c0.31-1.78,0.63-3.48,0.96-5.11c0.74-3.88,1.53-7.84,2.36-11.87l7.78-1.02c-0.8,3.44-1.57,6.79-2.31,10.05
				c-0.33,1.39-0.65,2.84-0.98,4.34c-0.33,1.5-0.64,2.96-0.93,4.38c-0.3,1.42-0.56,2.8-0.8,4.14c-0.24,1.33-0.43,2.52-0.58,3.56
				c0.74-0.06,1.53-0.1,2.38-0.11c0.84-0.01,1.59-0.02,2.25-0.02c0.03,0.56,0.07,1.12,0.13,1.67c0.06,0.55,0.13,1.05,0.2,1.49
				c0.07,0.45,0.13,0.84,0.18,1.18c0.04,0.34,0.08,0.57,0.11,0.69c-0.24,0-0.47-0.01-0.69-0.02c-0.22-0.01-0.45-0.02-0.69-0.02
				C22.24,42.35,21.27,42.38,20.24,42.44z"/>
			<path class="st1" d="M24.67,43.82l5.83-31.62L44.55,11c-0.21,0.65-0.39,1.32-0.53,2c-0.15,0.56-0.29,1.15-0.42,1.76
				c-0.13,0.61-0.24,1.15-0.33,1.62c-0.3,0.03-0.72,0.05-1.27,0.07c-0.55,0.02-1.13,0.03-1.76,0.04c-0.62,0.02-1.25,0.02-1.89,0.02
				c-0.64,0-1.19,0-1.67,0l-1.56,7.96c0.92-0.06,1.78-0.1,2.58-0.13c0.65-0.03,1.32-0.04,2-0.04c0.68,0,1.19-0.01,1.51-0.04
				c-0.12,0.83-0.23,1.65-0.33,2.45c-0.1,0.8-0.23,1.62-0.38,2.45c-0.3,0.03-0.78,0.05-1.45,0.07c-0.67,0.01-1.34,0.04-2.02,0.07
				c-0.77,0.03-1.62,0.06-2.53,0.09l-1.51,8.18l6.49-1.02l-0.44,5.07L24.67,43.82z"/>
			<path class="st1" d="M43.48,43.82c0.68-3.26,1.33-6.48,1.96-9.65c0.27-1.33,0.53-2.73,0.8-4.18c0.27-1.45,0.53-2.88,0.78-4.29
				c0.25-1.41,0.47-2.77,0.67-4.09c0.19-1.32,0.36-2.53,0.51-3.62c-0.68-0.09-1.37-0.12-2.07-0.09c-0.7,0.03-1.39-0.06-2.07-0.27
				c0.03-0.47,0.04-1.02,0.04-1.65c0-0.62,0.01-1.25,0.04-1.87c0.03-0.68,0.06-1.41,0.09-2.18c0.77,0.06,1.54,0.1,2.31,0.13
				c0.77,0.03,1.54,0.04,2.31,0.04c1.51,0,2.97-0.04,4.38-0.11c1.41-0.07,2.71-0.16,3.91-0.27c1.2-0.1,2.38-0.23,3.54-0.38
				l-0.49,2.4c-0.15,0.68-0.29,1.38-0.42,2.09c-0.13,0.71-0.26,1.32-0.38,1.82c-0.65,0.18-1.31,0.3-1.98,0.38
				c-0.67,0.07-1.33,0.17-1.98,0.29c-0.21,1.01-0.43,2.13-0.67,3.36c-0.24,1.23-0.47,2.51-0.69,3.82c-0.22,1.32-0.44,2.66-0.64,4.02
				c-0.21,1.36-0.42,2.67-0.62,3.91c-0.47,2.94-0.92,5.97-1.33,9.12L43.48,43.82z"/>
			<path class="st1" d="M74.32,37.31c-0.64,1.35-1.5,2.51-2.58,3.49c-1.08,0.98-2.36,1.73-3.82,2.27c-1.47,0.53-3.05,0.8-4.74,0.8
				c-1.19,0-2.37-0.32-3.56-0.96c-1.19-0.64-2.33-1.65-3.42-3.05l3.29-6.45c0.21,0.39,0.52,0.78,0.93,1.18
				c0.41,0.4,0.88,0.75,1.4,1.04c0.52,0.3,1.04,0.54,1.56,0.73c0.52,0.19,0.99,0.29,1.4,0.29c0.36,0,0.73-0.06,1.11-0.18
				c0.38-0.12,0.74-0.3,1.07-0.53c0.33-0.24,0.59-0.51,0.78-0.82c0.19-0.31,0.29-0.67,0.29-1.09c0-0.71-0.23-1.37-0.69-1.98
				c-0.46-0.61-1.03-1.19-1.71-1.73c-0.68-0.55-1.42-1.1-2.22-1.67c-0.8-0.56-1.53-1.16-2.2-1.78c-0.67-0.62-1.24-1.32-1.71-2.09
				c-0.47-0.77-0.71-1.63-0.71-2.58c0-1.54,0.46-2.98,1.38-4.31c0.92-1.33,2.07-2.48,3.45-3.45c1.38-0.96,2.88-1.73,4.51-2.29
				c1.63-0.56,3.17-0.84,4.62-0.84c0.8,0,1.56,0.1,2.27,0.29c0.71,0.19,1.33,0.5,1.85,0.93c0.52,0.43,0.93,0.97,1.25,1.62
				c0.31,0.65,0.47,1.47,0.47,2.45c0,0.42-0.04,0.83-0.11,1.24c-0.07,0.42-0.14,0.86-0.2,1.33l-6.45,1.87
				c0.06-0.24,0.11-0.47,0.16-0.71c0.04-0.24,0.07-0.47,0.07-0.71c0-0.89-0.16-1.53-0.47-1.93c-0.31-0.4-0.72-0.6-1.22-0.6
				c-0.24,0-0.53,0.09-0.87,0.27c-0.34,0.18-0.68,0.41-1.02,0.69c-0.34,0.28-0.63,0.62-0.87,1c-0.24,0.39-0.36,0.8-0.36,1.25
				c0,0.71,0.2,1.3,0.6,1.78c0.4,0.47,0.9,0.92,1.49,1.33c0.59,0.42,1.24,0.84,1.93,1.27c0.7,0.43,1.34,0.99,1.93,1.67
				c0.59,0.68,1.09,1.53,1.49,2.56c0.4,1.02,0.6,2.32,0.6,3.89C75.27,34.45,74.96,35.96,74.32,37.31z"/>
		</g>
		<circle class="st1" cx="88.79" cy="37.49" r="4.8"/>
		<circle class="st1" cx="102.73" cy="37.49" r="4.8"/>
		<circle class="st1" cx="116.68" cy="37.49" r="4.8"/>
	</g>
</g>
</svg>
