<?xml version="1.0" encoding="utf-8"?>
<!-- Generator: Adobe Illustrator 16.0.0, SVG Export Plug-In . SVG Version: 6.00 Build 0)  -->
<!DOCTYPE svg PUBLIC "-//W3C//DTD SVG 1.1//EN" "http://www.w3.org/Graphics/SVG/1.1/DTD/svg11.dtd">
<svg version="1.1" id="Layer_1" xmlns="http://www.w3.org/2000/svg" xmlns:xlink="http://www.w3.org/1999/xlink" x="0px" y="0px"
	 width="68.126px" height="68.128px" viewBox="0 0 68.126 68.128" enable-background="new 0 0 68.126 68.128" xml:space="preserve">
<g>
	<radialGradient id="SVGID_1_" cx="52.793" cy="27.9463" r="59.5937" gradientUnits="userSpaceOnUse">
		<stop  offset="0" style="stop-color:#D22027"/>
		<stop  offset="1" style="stop-color:#ED1B35"/>
	</radialGradient>
	<path fill="url(#SVGID_1_)" d="M60.492,0.168l-52.458,0C3.614,0.169,0,3.784,0,8.201v52.461c0,4.417,3.614,8.032,8.034,8.032
		l52.458-0.001c4.421,0,8.035-3.614,8.035-8.033V8.201C68.527,3.782,64.913,0.168,60.492,0.168z"/>
	<g>
		<polygon fill="#F5E103" points="17.22,26.469 25.006,32.397 22.084,23.105 29.696,17.177 20.135,17.177 17.22,8.063 
			14.297,17.177 4.741,17.177 12.352,23.105 9.429,32.397 		"/>
		<polygon fill="#F5E103" points="48.753,32.104 51.317,34.054 50.355,30.999 52.858,29.048 49.713,29.048 48.753,26.05 
			47.793,29.048 44.65,29.048 47.154,30.999 46.194,34.054 		"/>
		<polygon fill="#F5E103" points="38.921,41.221 40.593,43.975 40.819,40.779 43.863,39.884 40.938,38.73 41.145,35.589 
			39.151,38.026 36.226,36.874 37.839,39.604 35.824,42.095 		"/>
		<polygon fill="#F5E103" points="49.696,18.322 52.87,18.866 50.605,16.602 51.924,13.715 49.134,15.168 46.896,12.954 
			47.431,16.058 44.643,17.511 47.763,18.082 48.323,21.235 		"/>
		<polygon fill="#F5E103" points="41.005,8.825 44.158,8.188 41.23,6.894 41.418,3.725 39.341,6.088 36.453,4.83 38.074,7.531 
			35.999,9.893 39.116,9.299 40.777,12.037 		"/>
	</g>
	<linearGradient id="SVGID_2_" gradientUnits="userSpaceOnUse" x1="68.5273" y1="25.1782" x2="-0.1109" y2="25.1782">
		<stop  offset="0" style="stop-color:#F27794"/>
		<stop  offset="1" style="stop-color:#EB1C33"/>
	</linearGradient>
	<path fill="url(#SVGID_2_)" d="M60.492,0.168l-52.458,0C3.614,0.169,0,3.784,0,8.201v41.987
		c10.979-0.382,23.837-2.632,36.527-8.963l1.312-1.621l-1.613-2.73l2.926,1.152l1.993-2.438l-0.207,3.142l0.128,0.051
		c2.945-1.713,5.866-3.664,8.739-5.876l-1.052-0.8l-2.559,1.95l0.96-3.056l-2.504-1.95h3.143l0.96-2.999l0.96,2.999h3.146
		l-2.503,1.95l0.372,1.18c6.269-4.969,12.294-11.211,17.8-19.041V8.201C68.527,3.782,64.913,0.168,60.492,0.168z M25.006,32.397
		l-7.786-5.929l-7.791,5.929l2.923-9.292l-7.61-5.929h9.556l2.922-9.113l2.915,9.113h9.562l-7.612,5.929L25.006,32.397z
		 M41.005,8.825l-0.228,3.211l-1.661-2.738l-3.117,0.594l2.075-2.362L36.453,4.83l2.888,1.258l2.077-2.363L41.23,6.894l2.928,1.294
		L41.005,8.825z M49.696,18.322l-1.373,2.913l-0.561-3.153l-3.12-0.571l2.788-1.453l-0.535-3.104l2.238,2.214l2.79-1.454
		l-1.318,2.887l2.265,2.264L49.696,18.322z"/>
	<g>
		<linearGradient id="SVGID_3_" gradientUnits="userSpaceOnUse" x1="54.0078" y1="20.2305" x2="5.1108" y2="20.2305">
			<stop  offset="0" style="stop-color:#F8ED48"/>
			<stop  offset="1" style="stop-color:#FCEE23"/>
		</linearGradient>
		<polygon fill="url(#SVGID_3_)" points="20.135,17.177 17.22,8.063 14.297,17.177 4.741,17.177 12.352,23.105 9.429,32.397 
			17.22,26.469 25.006,32.397 22.084,23.105 29.696,17.177 		"/>
		<linearGradient id="SVGID_4_" gradientUnits="userSpaceOnUse" x1="54.0078" y1="30.0522" x2="5.1133" y2="30.0522">
			<stop  offset="0" style="stop-color:#F8ED48"/>
			<stop  offset="1" style="stop-color:#FCEE23"/>
		</linearGradient>
		<path fill="url(#SVGID_4_)" d="M50.355,30.999l2.503-1.95h-3.146l-0.96-2.999l-0.96,2.999H44.65l2.504,1.95l-0.96,3.056
			l2.559-1.95l1.052,0.8c0.309-0.237,0.614-0.484,0.923-0.727L50.355,30.999z"/>
		<linearGradient id="SVGID_5_" gradientUnits="userSpaceOnUse" x1="54.0088" y1="38.4072" x2="5.1088" y2="38.4072">
			<stop  offset="0" style="stop-color:#F8ED48"/>
			<stop  offset="1" style="stop-color:#FCEE23"/>
		</linearGradient>
		<path fill="url(#SVGID_5_)" d="M40.938,38.73l0.207-3.142l-1.993,2.438l-2.926-1.152l1.613,2.73l-1.312,1.621
			c1.515-0.756,3.029-1.569,4.538-2.444L40.938,38.73z"/>
		<linearGradient id="SVGID_6_" gradientUnits="userSpaceOnUse" x1="54.0098" y1="17.0947" x2="5.0978" y2="17.0947">
			<stop  offset="0" style="stop-color:#F8ED48"/>
			<stop  offset="1" style="stop-color:#FCEE23"/>
		</linearGradient>
		<polygon fill="url(#SVGID_6_)" points="51.924,13.715 49.134,15.168 46.896,12.954 47.431,16.058 44.643,17.511 47.763,18.082 
			48.323,21.235 49.696,18.322 52.87,18.866 50.605,16.602 		"/>
		<linearGradient id="SVGID_7_" gradientUnits="userSpaceOnUse" x1="54.0059" y1="7.8809" x2="5.1125" y2="7.8809">
			<stop  offset="0" style="stop-color:#F8ED48"/>
			<stop  offset="1" style="stop-color:#FCEE23"/>
		</linearGradient>
		<polygon fill="url(#SVGID_7_)" points="41.418,3.725 39.341,6.088 36.453,4.83 38.074,7.531 35.999,9.893 39.116,9.299 
			40.777,12.037 41.005,8.825 44.158,8.188 41.23,6.894 		"/>
	</g>
</g>
</svg>
