<?xml version="1.0" encoding="utf-8"?>
<!-- Generator: Adobe Illustrator 16.0.0, SVG Export Plug-In . SVG Version: 6.00 Build 0)  -->
<!DOCTYPE svg PUBLIC "-//W3C//DTD SVG 1.1//EN" "http://www.w3.org/Graphics/SVG/1.1/DTD/svg11.dtd">
<svg version="1.1" id="Layer_1" xmlns="http://www.w3.org/2000/svg" xmlns:xlink="http://www.w3.org/1999/xlink" x="0px" y="0px"
	 width="68.126px" height="68.128px" viewBox="0 0 68.126 68.128" enable-background="new 0 0 68.126 68.128" xml:space="preserve">
<g>
	<radialGradient id="SVGID_1_" cx="55.041" cy="26.9517" r="67.2356" gradientUnits="userSpaceOnUse">
		<stop  offset="0" style="stop-color:#212D60"/>
		<stop  offset="1" style="stop-color:#2E5CAA"/>
	</radialGradient>
	<path fill="url(#SVGID_1_)" d="M60.141,0L7.984,0.002C3.591,0.002,0,3.594,0,7.988v52.154c0,4.392,3.591,7.985,7.984,7.985h52.156
		c4.393,0,7.985-3.594,7.985-7.985V7.988C68.126,3.594,64.533,0,60.141,0z"/>
	<g>
		<linearGradient id="SVGID_2_" gradientUnits="userSpaceOnUse" x1="54.8096" y1="11.1885" x2="-5.174" y2="33.3297">
			<stop  offset="0" style="stop-color:#E3E3E3"/>
			<stop  offset="1" style="stop-color:#F7F8F8"/>
		</linearGradient>
		<path fill="url(#SVGID_2_)" d="M33.973,21.866c0-0.444,0-0.867,0-1.38L63.948,0.975C62.815,0.353,61.518,0,60.141,0h-0.284
			L33.973,16.971c0-4.301,0-11.453,0-16.969h-5.275v27.046l39.428,0.048v-5.23c-3.946,0-9.057,0-14.195,0l14.195-9.303V7.988
			c0-1.265-0.307-2.461-0.835-3.528L40.593,21.866C37.797,21.866,35.475,21.866,33.973,21.866z"/>
		<linearGradient id="SVGID_3_" gradientUnits="userSpaceOnUse" x1="63.2363" y1="34.0186" x2="3.2519" y2="56.1601">
			<stop  offset="0" style="stop-color:#E3E3E3"/>
			<stop  offset="1" style="stop-color:#F7F8F8"/>
		</linearGradient>
		<path fill="url(#SVGID_3_)" d="M0,41.195v6.687l2.243-1.488c3.005,0,5.513,0,7.105,0c0,0.351,0,0.667,0,1.06L0,53.566v3.667
			l9.348-6.154c0,3.647,0,10.69,0,17.049h5.276V41.213L0,41.195z"/>
		<linearGradient id="SVGID_4_" gradientUnits="userSpaceOnUse" x1="50.4346" y1="-0.6665" x2="-9.5497" y2="21.475">
			<stop  offset="0" style="stop-color:#E3E3E3"/>
			<stop  offset="1" style="stop-color:#F7F8F8"/>
		</linearGradient>
		<path fill="url(#SVGID_4_)" d="M14.625,0.002H9.348c0,5.753,0,13.319,0,17.721L0,11.686v8.442l2.588,1.738
			c-0.824,0-1.695,0-2.588,0v5.2l14.625-0.018V0.002z"/>
		<linearGradient id="SVGID_5_" gradientUnits="userSpaceOnUse" x1="67.7715" y1="46.3076" x2="7.7891" y2="68.4484">
			<stop  offset="0" style="stop-color:#E3E3E3"/>
			<stop  offset="1" style="stop-color:#F7F8F8"/>
		</linearGradient>
		<path fill="url(#SVGID_5_)" d="M28.698,68.128h5.275c0-6.475,0-13.678,0-17.366l26.746,17.336c2.841-0.204,5.278-1.91,6.522-4.326
			l-26.38-17.378c2.607,0,5.612,0,8.736,0l18.528,12.232v-2.998l-14.305-9.234c5.177,0,10.33,0,14.305,0v-5.227l-39.428,0.046
			V68.128z"/>
		<radialGradient id="SVGID_6_" cx="55.0703" cy="26.9512" r="67.2716" gradientUnits="userSpaceOnUse">
			<stop  offset="0" style="stop-color:#1F4393"/>
			<stop  offset="1" style="stop-color:#2E5CAA"/>
		</radialGradient>
		<path fill="url(#SVGID_6_)" d="M0,20.128v1.738c0.893,0,1.764,0,2.588,0L0,20.128z"/>
		<linearGradient id="SVGID_7_" gradientUnits="userSpaceOnUse" x1="27.5254" y1="77.1875" x2="66.1748" y2="44.9804">
			<stop  offset="0" style="stop-color:#EC1D25"/>
			<stop  offset="1" style="stop-color:#CF2027"/>
		</linearGradient>
		<path fill="url(#SVGID_7_)" d="M40.861,46.394l26.38,17.378c0.561-1.092,0.885-2.322,0.885-3.629v-1.517L49.598,46.394
			C46.474,46.394,43.469,46.394,40.861,46.394z"/>
		<radialGradient id="SVGID_8_" cx="55.04" cy="26.9536" r="67.2336" gradientUnits="userSpaceOnUse">
			<stop  offset="0" style="stop-color:#EC1D25"/>
			<stop  offset="1" style="stop-color:#ED1B2F"/>
		</radialGradient>
		<path fill="url(#SVGID_8_)" d="M9.348,46.394c-1.592,0-4.1,0-7.105,0L0,47.882v5.685l9.348-6.113
			C9.348,47.061,9.348,46.744,9.348,46.394z"/>
		<radialGradient id="SVGID_9_" cx="55.041" cy="26.9517" r="67.2371" gradientUnits="userSpaceOnUse">
			<stop  offset="0" style="stop-color:#EC1D25"/>
			<stop  offset="1" style="stop-color:#ED1B2F"/>
		</radialGradient>
		<path fill="url(#SVGID_9_)" d="M63.948,0.975L33.973,20.486c0,0.513,0,0.936,0,1.38c1.501,0,3.824,0,6.62,0L67.291,4.46
			C66.558,2.986,65.389,1.762,63.948,0.975z"/>
		<linearGradient id="SVGID_10_" gradientUnits="userSpaceOnUse" x1="5.3662" y1="50.5928" x2="44.0139" y2="18.3872">
			<stop  offset="0" style="stop-color:#EC1D25"/>
			<stop  offset="1" style="stop-color:#CF2027"/>
		</linearGradient>
		<polygon fill="url(#SVGID_10_)" points="28.698,0.002 14.625,0.002 14.625,27.048 0,27.066 0,41.195 14.625,41.213 14.625,68.128 
			28.698,68.128 28.698,41.213 68.126,41.167 68.126,27.096 28.698,27.048 		"/>
	</g>
	<g>
		<g>
			<linearGradient id="SVGID_11_" gradientUnits="userSpaceOnUse" x1="-0.106" y1="8.4854" x2="67.5277" y2="8.4854">
				<stop  offset="0" style="stop-color:#2D58A8"/>
				<stop  offset="1" style="stop-color:#7CA9DA"/>
			</linearGradient>
			<path fill="url(#SVGID_11_)" d="M59.856,0L33.973,0.002c0,5.516,0,12.668,0,16.969L59.856,0z"/>
			<linearGradient id="SVGID_12_" gradientUnits="userSpaceOnUse" x1="-0.0444" y1="8.8623" x2="28.1722" y2="8.8623">
				<stop  offset="0" style="stop-color:#2D58A8"/>
				<stop  offset="1" style="stop-color:#7CA9DA"/>
			</linearGradient>
			<path fill="url(#SVGID_12_)" d="M9.348,0.002H7.984C3.591,0.002,0,3.594,0,7.988v3.697l9.348,6.038
				C9.348,13.321,9.348,5.755,9.348,0.002z"/>
			<linearGradient id="SVGID_13_" gradientUnits="userSpaceOnUse" x1="-0.1045" y1="17.2148" x2="67.5272" y2="17.2148">
				<stop  offset="0" style="stop-color:#2D58A8"/>
				<stop  offset="1" style="stop-color:#7CA9DA"/>
			</linearGradient>
			<path fill="url(#SVGID_13_)" d="M53.931,21.866c2.51,0,5.009,0,7.373,0c2.343-2.603,4.622-5.438,6.822-8.516v-0.787
				L53.931,21.866z"/>
		</g>
		<g>
			<linearGradient id="SVGID_14_" gradientUnits="userSpaceOnUse" x1="-0.708" y1="13.541" x2="68.1257" y2="13.541">
				<stop  offset="0" style="stop-color:#F7F8F8"/>
				<stop  offset="1" style="stop-color:#FFFFFF"/>
			</linearGradient>
			<path fill="url(#SVGID_14_)" d="M28.698,27.048l27.534,0.034c1.719-1.625,3.408-3.368,5.071-5.216c-2.364,0-4.863,0-7.373,0
				l14.195-9.303V7.988c0-0.302-0.02-0.6-0.054-0.893c-0.008-0.063-0.02-0.127-0.029-0.191c-0.033-0.236-0.073-0.472-0.127-0.701
				c-0.012-0.049-0.025-0.099-0.038-0.149c-0.063-0.249-0.137-0.494-0.225-0.735c-0.007-0.023-0.016-0.046-0.024-0.071
				c-0.101-0.269-0.213-0.531-0.338-0.785c0,0,0-0.001,0-0.003L40.593,21.866c-2.796,0-5.118,0-6.62,0c0-0.444,0-0.867,0-1.38
				L63.948,0.975c-0.262-0.144-0.533-0.269-0.811-0.382c-0.079-0.031-0.162-0.058-0.242-0.088C62.694,0.43,62.49,0.36,62.281,0.303
				c-0.1-0.027-0.197-0.054-0.298-0.077c-0.207-0.048-0.417-0.088-0.632-0.122c-0.093-0.014-0.186-0.032-0.28-0.043
				C60.767,0.025,60.456,0,60.141,0h-0.284l0,0L33.973,16.971c0-4.301,0-11.453,0-16.969l0,0h-5.275V27.048z"/>
			<linearGradient id="SVGID_15_" gradientUnits="userSpaceOnUse" x1="-0.7104" y1="45.4043" x2="68.1259" y2="45.4043">
				<stop  offset="0" style="stop-color:#F7F8F8"/>
				<stop  offset="1" style="stop-color:#FFFFFF"/>
			</linearGradient>
			<path fill="url(#SVGID_15_)" d="M9.348,46.394c0,0.351,0,0.667,0,1.06l-3.301,2.161c2.783-0.282,5.651-0.693,8.577-1.265v-7.137
				L0,41.195v6.687l2.243-1.488C5.248,46.394,7.756,46.394,9.348,46.394z"/>
			<linearGradient id="SVGID_16_" gradientUnits="userSpaceOnUse" x1="-0.7104" y1="13.5342" x2="68.1259" y2="13.5342">
				<stop  offset="0" style="stop-color:#F7F8F8"/>
				<stop  offset="1" style="stop-color:#FFFFFF"/>
			</linearGradient>
			<path fill="url(#SVGID_16_)" d="M14.625,0.002H9.348c0,5.753,0,13.319,0,17.721L0,11.686v8.442l2.588,1.738
				c-0.824,0-1.695,0-2.588,0v5.2l14.625-0.018V0.002z"/>
			<linearGradient id="SVGID_17_" gradientUnits="userSpaceOnUse" x1="-0.7056" y1="42.7832" x2="68.123" y2="42.7832">
				<stop  offset="0" style="stop-color:#F7F8F8"/>
				<stop  offset="1" style="stop-color:#FFFFFF"/>
			</linearGradient>
			<path fill="url(#SVGID_17_)" d="M28.698,44.362c2.421-0.917,4.854-1.962,7.282-3.158l-7.282,0.009V44.362z"/>
		</g>
		<g>
			<linearGradient id="SVGID_18_" gradientUnits="userSpaceOnUse" x1="-0.106" y1="20.9971" x2="67.564" y2="20.9971">
				<stop  offset="0" style="stop-color:#EE1F34"/>
				<stop  offset="1" style="stop-color:#F38496"/>
			</linearGradient>
			<path fill="url(#SVGID_18_)" d="M0,20.128v1.738c0.893,0,1.764,0,2.588,0L0,20.128z"/>
			<linearGradient id="SVGID_19_" gradientUnits="userSpaceOnUse" x1="-0.106" y1="48.2148" x2="67.5271" y2="48.2148">
				<stop  offset="0" style="stop-color:#EE1F34"/>
				<stop  offset="1" style="stop-color:#F38496"/>
			</linearGradient>
			<path fill="url(#SVGID_19_)" d="M9.348,47.453c0-0.393,0-0.709,0-1.06c-1.592,0-4.1,0-7.105,0L0,47.882v2.154
				c1.963-0.077,3.981-0.215,6.047-0.422L9.348,47.453z"/>
			<linearGradient id="SVGID_20_" gradientUnits="userSpaceOnUse" x1="-0.1064" y1="11.4204" x2="67.5282" y2="11.4204">
				<stop  offset="0" style="stop-color:#EE1F34"/>
				<stop  offset="1" style="stop-color:#F38496"/>
			</linearGradient>
			<path fill="url(#SVGID_20_)" d="M33.973,20.486c0,0.513,0,0.936,0,1.38c1.501,0,3.824,0,6.62,0L67.291,4.46h-0.002
				c-0.362-0.728-0.831-1.394-1.385-1.978c-0.01-0.01-0.02-0.021-0.029-0.032c-0.262-0.271-0.544-0.52-0.839-0.752
				c-0.05-0.039-0.101-0.075-0.151-0.114c-0.297-0.222-0.607-0.432-0.937-0.61L33.973,20.486z"/>
			<linearGradient id="SVGID_21_" gradientUnits="userSpaceOnUse" x1="-0.106" y1="24.1758" x2="67.5282" y2="24.1758">
				<stop  offset="0" style="stop-color:#EE1F34"/>
				<stop  offset="1" style="stop-color:#F38496"/>
			</linearGradient>
			<path fill="url(#SVGID_21_)" d="M14.625,48.35c4.584-0.896,9.311-2.188,14.074-3.987v-3.149l7.282-0.009
				c6.902-3.4,13.76-7.989,20.252-14.122l-27.534-0.034V0.002h-6.292h-7.782v27.046L0,27.066v14.129l14.625,0.018V48.35z"/>
		</g>
	</g>
</g>
<g>
	<g>
		<radialGradient id="SVGID_22_" cx="5.041" cy="51.499" r="53.8488" gradientUnits="userSpaceOnUse">
			<stop  offset="0" style="stop-color:#EFEEEE"/>
			<stop  offset="1" style="stop-color:#E8E8E8"/>
		</radialGradient>
		<rect y="21.75" fill="url(#SVGID_22_)" width="68.41" height="24.98"/>
		<radialGradient id="SVGID_23_" cx="5.041" cy="51.501" r="53.8494" gradientUnits="userSpaceOnUse">
			<stop  offset="0" style="stop-color:#EC2134"/>
			<stop  offset="1" style="stop-color:#ED1B33"/>
		</radialGradient>
		<path fill="url(#SVGID_23_)" d="M68.41,8.021C68.41,3.609,64.798,0,60.392,0L8.019,0.002C3.609,0.002,0,3.609,0,8.021v14.51h68.41
			V8.021z"/>
		<radialGradient id="SVGID_24_" cx="5.041" cy="51.5" r="53.8487" gradientUnits="userSpaceOnUse">
			<stop  offset="0" style="stop-color:#4066B0"/>
			<stop  offset="0.0102" style="stop-color:#4066B0"/>
			<stop  offset="1" style="stop-color:#384EA2"/>
		</radialGradient>
		<path fill="url(#SVGID_24_)" d="M8.019,68.411l52.373-0.003c4.406,0,8.019-3.607,8.019-8.017V45.949H0v14.442
			C0,64.801,3.609,68.411,8.019,68.411z"/>
	</g>
	<g>
		<linearGradient id="SVGID_25_" gradientUnits="userSpaceOnUse" x1="57.3721" y1="34.2397" x2="1.0148" y2="34.2397">
			<stop  offset="0" style="stop-color:#FFFFFF"/>
			<stop  offset="1" style="stop-color:#F7F8F8"/>
		</linearGradient>
		<path fill="url(#SVGID_25_)" d="M60.729,22.531H0v23.418h24.063C36.45,42.11,49.324,35.015,60.729,22.531z"/>
		<linearGradient id="SVGID_26_" gradientUnits="userSpaceOnUse" x1="66.5215" y1="11.2651" x2="2.4794" y2="11.2651">
			<stop  offset="0" style="stop-color:#F7A2A1"/>
			<stop  offset="0.617" style="stop-color:#F26865"/>
			<stop  offset="1" style="stop-color:#EF3D49"/>
		</linearGradient>
		<path fill="url(#SVGID_26_)" d="M60.392,0L8.019,0.002C3.609,0.002,0,3.609,0,8.021V21.75v0.781h60.729
			c2.646-2.897,5.217-6.081,7.681-9.584V8.021C68.41,3.609,64.798,0,60.392,0z"/>
		<linearGradient id="SVGID_27_" gradientUnits="userSpaceOnUse" x1="22.6064" y1="47.9424" x2="-0.8142" y2="47.9424">
			<stop  offset="0" style="stop-color:#4670B6"/>
			<stop  offset="1" style="stop-color:#456FB6"/>
		</linearGradient>
		<path fill="url(#SVGID_27_)" d="M24.063,45.949H0v0.78v3.205C7.378,49.678,15.607,48.568,24.063,45.949z"/>
	</g>
</g>
</svg>
