<?xml version="1.0" encoding="utf-8"?>
<!-- Generator: Adobe Illustrator 16.0.0, SVG Export Plug-In . SVG Version: 6.00 Build 0)  -->
<!DOCTYPE svg PUBLIC "-//W3C//DTD SVG 1.1//EN" "http://www.w3.org/Graphics/SVG/1.1/DTD/svg11.dtd">
<svg version="1.1" id="Layer_1" xmlns="http://www.w3.org/2000/svg" xmlns:xlink="http://www.w3.org/1999/xlink" x="0px" y="0px"
	 width="57.031px" height="57.586px" viewBox="0 0 57.031 57.586" enable-background="new 0 0 57.031 57.586" xml:space="preserve">
<g>
	<g>
		<g opacity="0.7">
			<path fill="#010101" d="M28.77,49.696c-11.629,0-21.094-9.461-21.094-21.093c0-11.631,9.465-21.091,21.094-21.091
				c11.634,0,21.094,9.46,21.094,21.091C49.864,40.235,40.404,49.696,28.77,49.696z"/>
		</g>
		<radialGradient id="SVGID_1_" cx="28.77" cy="28.6045" r="21.0928" gradientUnits="userSpaceOnUse">
			<stop  offset="0" style="stop-color:#F89521"/>
			<stop  offset="0.8856" style="stop-color:#5D3269"/>
			<stop  offset="1" style="stop-color:#4C276C"/>
		</radialGradient>
		<path fill="url(#SVGID_1_)" stroke="#673090" stroke-width="0.3626" stroke-miterlimit="10" d="M28.77,49.696
			c-11.629,0-21.094-9.461-21.094-21.093c0-11.631,9.465-21.091,21.094-21.091c11.634,0,21.094,9.46,21.094,21.091
			C49.864,40.235,40.404,49.696,28.77,49.696z"/>
		<path fill="#FFFFFF" d="M34.642,39.08H23.491c-2.544,0-4.614-2.07-4.614-4.614V23.313c0-2.546,2.07-4.617,4.614-4.617h11.151
			c2.544,0,4.619,2.071,4.619,4.617v11.152C39.261,37.01,37.186,39.08,34.642,39.08z M23.491,20.728
			c-1.428,0-2.588,1.16-2.588,2.586v11.152c0,1.428,1.16,2.588,2.588,2.588h11.151c1.429,0,2.589-1.16,2.589-2.588V23.313
			c0-1.426-1.16-2.586-2.589-2.586H23.491z M29.069,34.216c-2.905,0-5.27-2.36-5.27-5.267c0-2.905,2.365-5.268,5.27-5.268
			c2.905,0,5.266,2.363,5.266,5.268C34.334,31.855,31.974,34.216,29.069,34.216z M29.069,25.709c-1.789,0-3.24,1.455-3.24,3.24
			c0,1.786,1.451,3.241,3.24,3.241c1.785,0,3.24-1.455,3.24-3.241C32.309,27.164,30.854,25.709,29.069,25.709z M34.536,22.385
			c-0.736,0-1.335,0.598-1.335,1.338c0,0.736,0.599,1.337,1.335,1.337c0.74,0,1.339-0.601,1.339-1.337
			C35.875,22.983,35.276,22.385,34.536,22.385z"/>
	</g>
</g>
</svg>
