<?xml version="1.0" encoding="utf-8"?>
<!-- Generator: Adobe Illustrator 16.0.0, SVG Export Plug-In . SVG Version: 6.00 Build 0)  -->
<!DOCTYPE svg PUBLIC "-//W3C//DTD SVG 1.1//EN" "http://www.w3.org/Graphics/SVG/1.1/DTD/svg11.dtd">
<svg version="1.1" id="Layer_1" xmlns="http://www.w3.org/2000/svg" xmlns:xlink="http://www.w3.org/1999/xlink" x="0px" y="0px"
	 width="302.304px" height="71.891px" viewBox="0 0 302.304 71.891" enable-background="new 0 0 302.304 71.891"
	 xml:space="preserve">
<g>
	<g>
		<g>
			<g>
				<path fill="#FFFFFF" d="M33.656,21.7c1.64,0,3.229,0.254,4.73,0.721l4.899-17.078c-2.973-0.851-6.112-1.308-9.358-1.308
					c-3.246,0-6.385,0.457-9.358,1.308l4.857,16.933C30.78,21.903,32.198,21.7,33.656,21.7z"/>
				<path fill="#FFFFFF" d="M33.656,54.314c-1.467,0-2.892-0.205-4.251-0.584L24.57,70.583c2.973,0.851,6.112,1.308,9.358,1.308
					c3.246,0,6.385-0.457,9.358-1.308L38.41,53.584C36.9,54.057,35.304,54.314,33.656,54.314z"/>
				<path fill="#FFFFFF" d="M49.498,31.835l22.774-12.619C67.794,11.152,61.119,4.478,53.055,0L40.495,22.667
					C44.253,24.852,47.384,28.035,49.498,31.835z"/>
				<path fill="#FFFFFF" d="M19.481,45.969c-5.425,3.006-11.236,6.226-15.232,8.441c3.083,5.552,7.68,10.147,13.232,13.232
					l8.481-15.307C23.261,50.861,21.006,48.64,19.481,45.969z"/>
				<path fill="#FFFFFF" d="M66.547,28.605L49.32,33.547c0.415,1.422,0.642,2.918,0.642,4.459c0,1.513-0.22,2.98-0.619,4.379
					c6.092,1.748,12.699,3.644,17.205,4.936c0.851-2.972,1.308-6.111,1.308-9.357C67.855,34.716,67.398,31.579,66.547,28.605z"/>
				<path fill="#FFFFFF" d="M17.349,38.006c0-1.594,0.242-3.138,0.685-4.604c-5.958-1.708-12.338-3.538-16.726-4.797
					C0.457,31.579,0,34.716,0,37.963c0,3.246,0.457,6.386,1.308,9.357L18.01,42.53C17.583,41.088,17.349,39.572,17.349,38.006z"/>
				<path fill="#FFFFFF" d="M47.963,45.741c-1.449,2.635-3.608,4.842-6.202,6.358c3.055,5.512,6.356,11.47,8.614,15.544
					c5.552-3.085,10.147-7.681,13.231-13.232L47.963,45.741z"/>
				<path fill="#FFFFFF" d="M26,23.658l-8.52-15.374c-5.553,3.084-10.149,7.679-13.232,13.232l15.271,8.462
					C21.05,27.325,23.304,25.122,26,23.658z"/>
			</g>
			<g>
				<path fill="#FFFFFF" d="M22.526,40.243h-2.754c0.374,2.367,1.332,4.537,2.724,6.363l1.885-1.886
					c0.592-0.593,1.564-0.593,2.157,0l0.615,0.617c0.592,0.591,0.592,1.563,0,2.155l-1.877,1.876
					c1.826,1.371,3.996,2.312,6.357,2.672v-2.691c0-0.841,0.686-1.525,1.525-1.525h0.869c0.839,0,1.525,0.685,1.525,1.525v2.736
					c2.411-0.299,4.633-1.206,6.51-2.561l-2.032-2.032c-0.594-0.593-0.594-1.564,0-2.155l0.615-0.617
					c0.594-0.593,1.565-0.593,2.157,0l2.094,2.094c1.479-1.867,2.5-4.114,2.886-6.571h-3.125c-0.839,0-1.525-0.688-1.525-1.525
					v-0.869c0-0.84,0.686-1.527,1.525-1.527h3.196c-0.303-2.531-1.271-4.859-2.727-6.801l-2.326,2.322
					c-0.592,0.594-1.563,0.594-2.157,0.001l-0.615-0.614c-0.593-0.594-0.593-1.565,0-2.159l2.333-2.332
					c-1.938-1.479-4.27-2.466-6.811-2.784v3.262c0,0.839-0.687,1.524-1.525,1.524h-0.869c-0.839,0-1.525-0.686-1.525-1.524v-3.215
					c-2.488,0.379-4.762,1.406-6.649,2.9l2.169,2.168c0.593,0.595,0.593,1.565,0,2.159l-0.614,0.613
					c-0.593,0.594-1.563,0.594-2.158,0l-2.107-2.106c-1.369,1.896-2.279,4.146-2.571,6.584h2.824c0.838,0,1.525,0.688,1.525,1.527
					v0.869C24.051,39.555,23.364,40.243,22.526,40.243z M33.777,31.028c3.862,0,6.992,3.131,6.992,6.99
					c0,3.863-3.13,6.992-6.992,6.992c-3.861,0-6.992-3.129-6.992-6.992C26.785,34.159,29.917,31.028,33.777,31.028z"/>
			</g>
		</g>
	</g>
	<g>
		<path fill="#FFFFFF" d="M101.311,37.354c0,1.381-0.356,2.622-1.067,3.723c-0.711,1.1-1.752,1.962-3.122,2.585
			c-1.371,0.623-2.996,0.935-4.874,0.935c-2.253,0-4.112-0.426-5.575-1.277c-1.038-0.613-1.882-1.43-2.531-2.453
			c-0.649-1.022-0.974-2.016-0.974-2.982c0-0.56,0.195-1.04,0.584-1.44c0.389-0.398,0.885-0.6,1.487-0.6
			c0.488,0,0.9,0.156,1.238,0.468s0.625,0.773,0.864,1.386c0.291,0.727,0.604,1.334,0.942,1.822c0.337,0.488,0.812,0.89,1.424,1.208
			c0.613,0.316,1.417,0.475,2.414,0.475c1.37,0,2.483-0.32,3.34-0.958c0.856-0.639,1.284-1.436,1.284-2.39
			c0-0.758-0.231-1.374-0.692-1.847c-0.462-0.472-1.06-0.833-1.792-1.083c-0.731-0.248-1.71-0.514-2.935-0.794
			c-1.641-0.384-3.013-0.832-4.119-1.347c-1.105-0.514-1.983-1.215-2.632-2.103c-0.648-0.888-0.973-1.991-0.973-3.309
			c0-1.256,0.343-2.372,1.028-3.349c0.685-0.976,1.676-1.726,2.974-2.25c1.298-0.524,2.824-0.786,4.578-0.786
			c1.401,0,2.614,0.173,3.636,0.521s1.872,0.81,2.546,1.386c0.675,0.576,1.168,1.182,1.479,1.815
			c0.312,0.633,0.467,1.25,0.467,1.853c0,0.55-0.195,1.045-0.583,1.487c-0.389,0.441-0.875,0.661-1.457,0.661
			c-0.529,0-0.932-0.133-1.207-0.396c-0.275-0.265-0.574-0.698-0.896-1.301c-0.416-0.861-0.914-1.533-1.495-2.017
			c-0.582-0.482-1.516-0.724-2.804-0.724c-1.194,0-2.157,0.261-2.889,0.786c-0.731,0.524-1.097,1.155-1.097,1.892
			c0,0.457,0.124,0.851,0.373,1.184c0.25,0.332,0.592,0.617,1.028,0.856c0.436,0.239,0.877,0.425,1.323,0.56
			c0.446,0.136,1.184,0.332,2.211,0.592c1.288,0.302,2.454,0.634,3.497,0.997s1.931,0.805,2.663,1.323
			c0.731,0.52,1.303,1.176,1.713,1.97C101.105,35.229,101.311,36.202,101.311,37.354z"/>
		<path fill="#FFFFFF" d="M109.096,23.572v6.307c0.541-0.623,1.067-1.116,1.582-1.479c0.514-0.363,1.082-0.636,1.705-0.817
			c0.623-0.181,1.292-0.272,2.009-0.272c1.08,0,2.037,0.229,2.873,0.685c0.835,0.457,1.493,1.121,1.97,1.994
			c0.3,0.509,0.503,1.076,0.607,1.705c0.104,0.629,0.156,1.353,0.156,2.172v8.146c0,0.851-0.195,1.495-0.584,1.931
			s-0.906,0.654-1.549,0.654c-1.401,0-2.102-0.862-2.102-2.585v-7.18c0-1.359-0.203-2.406-0.607-3.138
			c-0.405-0.732-1.174-1.098-2.305-1.098c-0.758,0-1.44,0.215-2.048,0.646c-0.607,0.43-1.062,1.02-1.363,1.768
			c-0.229,0.633-0.343,1.759-0.343,3.378v5.623c0,0.841-0.189,1.48-0.568,1.923c-0.379,0.441-0.906,0.662-1.581,0.662
			c-1.401,0-2.102-0.862-2.102-2.585V23.572c0-0.862,0.184-1.507,0.553-1.938c0.368-0.431,0.885-0.646,1.549-0.646
			c0.675,0,1.202,0.217,1.581,0.654C108.907,22.078,109.096,22.721,109.096,23.572z"/>
		<path fill="#FFFFFF" d="M140.116,35.954c0,1.266-0.197,2.434-0.591,3.503s-0.965,1.988-1.713,2.757s-1.641,1.356-2.679,1.768
			c-1.038,0.41-2.206,0.615-3.503,0.615c-1.288,0-2.445-0.209-3.473-0.624c-1.028-0.414-1.918-1.01-2.671-1.782
			c-0.753-0.774-1.324-1.688-1.713-2.74c-0.389-1.055-0.584-2.22-0.584-3.496c0-1.288,0.197-2.467,0.592-3.535
			c0.395-1.07,0.96-1.983,1.698-2.741c0.737-0.758,1.629-1.342,2.678-1.752c1.049-0.41,2.206-0.615,3.473-0.615
			c1.287,0,2.455,0.208,3.503,0.623c1.049,0.416,1.947,1.007,2.694,1.775c0.748,0.769,1.316,1.682,1.705,2.741
			C139.922,33.508,140.116,34.676,140.116,35.954z M135.85,35.954c0-1.734-0.381-3.084-1.145-4.05s-1.789-1.448-3.075-1.448
			c-0.831,0-1.563,0.216-2.195,0.646c-0.634,0.432-1.122,1.067-1.465,1.908c-0.342,0.841-0.514,1.821-0.514,2.943
			c0,1.11,0.169,2.081,0.506,2.911c0.337,0.831,0.82,1.467,1.448,1.908c0.628,0.44,1.369,0.661,2.22,0.661
			c1.287,0,2.312-0.485,3.075-1.456C135.468,39.008,135.85,37.666,135.85,35.954z"/>
		<path fill="#FFFFFF" d="M147.39,29.692v0.514c0.799-0.986,1.629-1.71,2.492-2.172c0.861-0.462,1.837-0.693,2.928-0.693
			c1.308,0,2.512,0.338,3.613,1.012c1.1,0.676,1.97,1.662,2.608,2.958c0.639,1.3,0.958,2.835,0.958,4.61
			c0,1.309-0.185,2.511-0.552,3.606c-0.369,1.094-0.875,2.013-1.519,2.755c-0.644,0.743-1.404,1.313-2.282,1.714
			c-0.877,0.399-1.82,0.6-2.826,0.6c-1.215,0-2.235-0.245-3.061-0.732c-0.825-0.488-1.611-1.204-2.359-2.149V48.1
			c0,1.868-0.68,2.803-2.04,2.803c-0.8,0-1.329-0.241-1.589-0.724c-0.259-0.484-0.389-1.187-0.389-2.11V29.724
			c0-0.81,0.176-1.415,0.529-1.814s0.835-0.6,1.449-0.6c0.602,0,1.092,0.206,1.471,0.615C147.2,28.335,147.39,28.925,147.39,29.692z
			 M155.721,35.875c0-1.121-0.171-2.084-0.514-2.889c-0.343-0.805-0.818-1.422-1.426-1.853c-0.607-0.432-1.279-0.647-2.016-0.647
			c-1.173,0-2.162,0.463-2.966,1.387c-0.805,0.924-1.207,2.283-1.207,4.08c0,1.692,0.399,3.008,1.199,3.947s1.791,1.408,2.975,1.408
			c0.706,0,1.36-0.203,1.962-0.614c0.603-0.41,1.085-1.024,1.448-1.845C155.539,38.029,155.721,37.038,155.721,35.875z"/>
		<path fill="#FFFFFF" d="M169.72,23.76l8.892,13.455v-13.58c0-0.882,0.189-1.544,0.568-1.985c0.378-0.441,0.89-0.661,1.534-0.661
			c0.664,0,1.188,0.22,1.573,0.661c0.384,0.441,0.577,1.104,0.577,1.985v17.955c0,2.004-0.831,3.007-2.492,3.007
			c-0.415,0-0.789-0.061-1.121-0.18c-0.333-0.119-0.645-0.309-0.935-0.568c-0.291-0.259-0.56-0.563-0.81-0.911
			c-0.249-0.347-0.498-0.703-0.748-1.066l-8.673-13.299v13.377c0,0.872-0.203,1.531-0.607,1.977
			c-0.405,0.447-0.924,0.671-1.558,0.671c-0.654,0-1.178-0.227-1.573-0.678c-0.395-0.452-0.592-1.109-0.592-1.97V24.336
			c0-0.749,0.083-1.334,0.25-1.761c0.197-0.467,0.524-0.849,0.98-1.145c0.457-0.295,0.95-0.443,1.479-0.443
			c0.416,0,0.771,0.067,1.067,0.202c0.296,0.136,0.556,0.317,0.778,0.545c0.223,0.229,0.452,0.524,0.686,0.888
			C169.23,22.986,169.471,23.365,169.72,23.76z"/>
		<path fill="#FFFFFF" d="M203.543,35.954c0,1.266-0.197,2.434-0.592,3.503c-0.394,1.069-0.965,1.988-1.712,2.757
			s-1.641,1.356-2.679,1.768c-1.038,0.41-2.206,0.615-3.503,0.615c-1.287,0-2.445-0.209-3.473-0.624
			c-1.028-0.414-1.918-1.01-2.67-1.782c-0.753-0.774-1.324-1.688-1.713-2.74c-0.39-1.055-0.584-2.22-0.584-3.496
			c0-1.288,0.197-2.467,0.592-3.535c0.395-1.07,0.96-1.983,1.698-2.741c0.737-0.758,1.63-1.342,2.678-1.752
			c1.049-0.41,2.206-0.615,3.473-0.615c1.287,0,2.456,0.208,3.503,0.623c1.049,0.416,1.947,1.007,2.694,1.775
			c0.748,0.769,1.316,1.682,1.705,2.741C203.349,33.508,203.543,34.676,203.543,35.954z M199.276,35.954
			c0-1.734-0.381-3.084-1.144-4.05s-1.789-1.448-3.076-1.448c-0.831,0-1.563,0.216-2.196,0.646
			c-0.633,0.432-1.121,1.067-1.463,1.908c-0.343,0.841-0.514,1.821-0.514,2.943c0,1.11,0.169,2.081,0.506,2.911
			c0.337,0.831,0.82,1.467,1.448,1.908c0.628,0.44,1.368,0.661,2.219,0.661c1.287,0,2.313-0.485,3.076-1.456
			C198.896,39.008,199.276,37.666,199.276,35.954z"/>
		<path fill="#FFFFFF" d="M209.539,29.958l2.772,9.499l2.523-8.829c0.27-0.924,0.469-1.555,0.599-1.893
			c0.129-0.337,0.374-0.659,0.732-0.964c0.358-0.307,0.849-0.46,1.472-0.46c0.632,0,1.128,0.153,1.487,0.46
			c0.358,0.305,0.609,0.638,0.755,0.996c0.145,0.358,0.347,0.979,0.607,1.861l2.523,8.829l2.803-9.499
			c0.187-0.686,0.337-1.181,0.451-1.487c0.114-0.307,0.306-0.577,0.577-0.811c0.27-0.233,0.659-0.35,1.168-0.35
			c0.508,0,0.95,0.177,1.323,0.529c0.374,0.354,0.561,0.769,0.561,1.246c0,0.437-0.161,1.096-0.483,1.978l-3.473,10.185
			c-0.301,0.861-0.534,1.485-0.7,1.869c-0.167,0.384-0.429,0.727-0.787,1.027c-0.358,0.301-0.849,0.452-1.472,0.452
			c-0.644,0-1.15-0.162-1.519-0.483s-0.641-0.717-0.818-1.184c-0.177-0.467-0.369-1.074-0.576-1.821l-2.429-8.285l-2.352,8.285
			c-0.311,1.152-0.649,2.021-1.012,2.608c-0.363,0.586-1.001,0.88-1.916,0.88c-0.467,0-0.864-0.092-1.191-0.273
			c-0.327-0.181-0.6-0.441-0.818-0.778c-0.218-0.337-0.41-0.737-0.576-1.198c-0.166-0.462-0.296-0.828-0.39-1.099l-3.441-10.185
			c-0.343-0.955-0.514-1.614-0.514-1.978c0-0.457,0.182-0.866,0.545-1.229c0.364-0.363,0.81-0.545,1.339-0.545
			c0.706,0,1.183,0.2,1.433,0.6C208.994,28.31,209.258,28.992,209.539,29.958z"/>
		<path fill="#FFFFFF" d="M232.835,44.596c-0.644,0-1.199-0.209-1.667-0.624c-0.467-0.414-0.7-0.996-0.7-1.743
			c0-0.634,0.223-1.179,0.669-1.635c0.446-0.457,0.997-0.687,1.651-0.687c0.654,0,1.212,0.227,1.674,0.679
			c0.461,0.451,0.693,0.999,0.693,1.643c0,0.736-0.231,1.315-0.693,1.736C234.001,44.385,233.458,44.596,232.835,44.596z"/>
		<path fill="#FFFFFF" d="M255.244,39.332c0,0.53-0.158,1.096-0.475,1.698c-0.317,0.603-0.8,1.176-1.449,1.721
			s-1.466,0.983-2.452,1.315c-0.986,0.333-2.097,0.499-3.333,0.499c-2.626,0-4.676-0.766-6.151-2.297
			c-1.474-1.532-2.211-3.586-2.211-6.16c0-1.744,0.338-3.285,1.012-4.624c0.675-1.34,1.651-2.375,2.929-3.107
			c1.277-0.732,2.803-1.098,4.578-1.098c1.1,0,2.11,0.161,3.029,0.482c0.919,0.322,1.697,0.736,2.336,1.245
			c0.639,0.51,1.126,1.051,1.464,1.628c0.337,0.575,0.505,1.113,0.505,1.611c0,0.509-0.189,0.939-0.568,1.293
			c-0.379,0.353-0.838,0.528-1.378,0.528c-0.354,0-0.646-0.09-0.88-0.271c-0.234-0.182-0.497-0.476-0.787-0.881
			c-0.52-0.789-1.062-1.38-1.627-1.774s-1.285-0.592-2.157-0.592c-1.256,0-2.269,0.49-3.037,1.472
			c-0.769,0.981-1.152,2.322-1.152,4.025c0,0.8,0.098,1.533,0.296,2.204c0.197,0.669,0.483,1.24,0.856,1.712
			c0.374,0.473,0.825,0.831,1.354,1.075c0.53,0.243,1.111,0.366,1.745,0.366c0.851,0,1.581-0.197,2.188-0.592
			c0.608-0.395,1.145-0.997,1.612-1.808c0.259-0.476,0.539-0.85,0.841-1.121c0.301-0.27,0.669-0.404,1.105-0.404
			c0.519,0,0.95,0.198,1.292,0.592C255.073,38.465,255.244,38.886,255.244,39.332z"/>
		<path fill="#FFFFFF" d="M274.865,35.954c0,1.266-0.198,2.434-0.592,3.503c-0.395,1.069-0.965,1.988-1.713,2.757
			s-1.641,1.356-2.678,1.768c-1.039,0.41-2.207,0.615-3.504,0.615c-1.287,0-2.444-0.209-3.472-0.624
			c-1.028-0.414-1.918-1.01-2.67-1.782c-0.753-0.774-1.324-1.688-1.713-2.74c-0.389-1.055-0.584-2.22-0.584-3.496
			c0-1.288,0.198-2.467,0.592-3.535c0.395-1.07,0.96-1.983,1.697-2.741c0.737-0.758,1.63-1.342,2.679-1.752
			c1.048-0.41,2.206-0.615,3.472-0.615c1.288,0,2.456,0.208,3.504,0.623c1.049,0.416,1.946,1.007,2.694,1.775
			c0.747,0.769,1.315,1.682,1.705,2.741C274.67,33.508,274.865,34.676,274.865,35.954z M270.599,35.954
			c0-1.734-0.382-3.084-1.145-4.05c-0.763-0.966-1.788-1.448-3.076-1.448c-0.83,0-1.562,0.216-2.195,0.646
			c-0.633,0.432-1.121,1.067-1.464,1.908c-0.342,0.841-0.514,1.821-0.514,2.943c0,1.11,0.168,2.081,0.506,2.911
			c0.337,0.831,0.82,1.467,1.448,1.908c0.628,0.44,1.368,0.661,2.219,0.661c1.288,0,2.313-0.485,3.076-1.456
			C270.217,39.008,270.599,37.666,270.599,35.954z"/>
		<path fill="#FFFFFF" d="M292.354,36.264v5.652c0,0.893-0.202,1.563-0.607,2.009c-0.404,0.447-0.939,0.671-1.604,0.671
			c-0.644,0-1.166-0.224-1.565-0.671c-0.399-0.445-0.599-1.116-0.599-2.009v-6.773c0-1.068-0.036-1.899-0.109-2.492
			c-0.072-0.591-0.27-1.077-0.591-1.456c-0.321-0.378-0.831-0.567-1.525-0.567c-1.392,0-2.308,0.478-2.749,1.433
			c-0.442,0.956-0.663,2.325-0.663,4.11v5.746c0,0.884-0.2,1.55-0.599,2.002c-0.399,0.451-0.926,0.678-1.581,0.678
			c-0.644,0-1.171-0.227-1.581-0.678c-0.41-0.452-0.615-1.118-0.615-2.002V29.755c0-0.8,0.184-1.406,0.553-1.822
			c0.369-0.416,0.854-0.623,1.457-0.623c0.581,0,1.066,0.195,1.455,0.584c0.39,0.39,0.584,0.927,0.584,1.612v0.405
			c0.737-0.882,1.526-1.531,2.367-1.947c0.841-0.415,1.775-0.623,2.803-0.623c1.069,0,1.988,0.213,2.756,0.638
			c0.768,0.426,1.402,1.069,1.9,1.931c0.716-0.872,1.485-1.518,2.305-1.939c0.82-0.42,1.728-0.63,2.726-0.63
			c1.162,0,2.164,0.228,3.005,0.685c0.84,0.458,1.469,1.112,1.885,1.963c0.363,0.769,0.544,1.978,0.544,3.629v8.299
			c0,0.893-0.202,1.563-0.607,2.009c-0.405,0.447-0.939,0.671-1.603,0.671c-0.645,0-1.171-0.227-1.582-0.678
			c-0.41-0.452-0.615-1.118-0.615-2.002v-7.147c0-0.913-0.039-1.645-0.117-2.195c-0.078-0.55-0.288-1.012-0.631-1.387
			c-0.343-0.373-0.862-0.56-1.557-0.56c-0.561,0-1.093,0.166-1.596,0.498c-0.504,0.332-0.896,0.778-1.176,1.339
			C292.51,33.181,292.354,34.448,292.354,36.264z"/>
	</g>
</g>
</svg>
