<?xml version="1.0" encoding="utf-8"?>
<!-- Generator: Adobe Illustrator 16.0.0, SVG Export Plug-In . SVG Version: 6.00 Build 0)  -->
<!DOCTYPE svg PUBLIC "-//W3C//DTD SVG 1.1//EN" "http://www.w3.org/Graphics/SVG/1.1/DTD/svg11.dtd">
<svg version="1.1" id="Layer_1" xmlns="http://www.w3.org/2000/svg" xmlns:xlink="http://www.w3.org/1999/xlink" x="0px" y="0px"
	 width="57.031px" height="57.586px" viewBox="0 0 57.031 57.586" enable-background="new 0 0 57.031 57.586" xml:space="preserve">
<g>
	<g>
		<g opacity="0.7">
			<path fill="#010101" d="M28.515,49.386c-11.458,0-20.779-9.324-20.779-20.778c0-11.458,9.321-20.779,20.779-20.779
				c11.455,0,20.779,9.321,20.779,20.779C49.294,40.062,39.97,49.386,28.515,49.386z"/>
		</g>
		<radialGradient id="SVGID_1_" cx="27.9219" cy="26.4058" r="20.4507" gradientUnits="userSpaceOnUse">
			<stop  offset="0" style="stop-color:#35B1E1"/>
			<stop  offset="1" style="stop-color:#065382"/>
		</radialGradient>
		<path fill="url(#SVGID_1_)" stroke="#35B1E1" stroke-width="0.3626" stroke-miterlimit="10" d="M28.515,49.386
			c-11.458,0-20.779-9.324-20.779-20.778c0-11.458,9.321-20.779,20.779-20.779c11.455,0,20.779,9.321,20.779,20.779
			C49.294,40.062,39.97,49.386,28.515,49.386z"/>
		<path fill="#F2F2F2" d="M41.83,21.508c-0.909,0.404-1.89,0.677-2.918,0.8c1.05-0.628,1.854-1.624,2.232-2.811
			c-0.98,0.583-2.065,1.004-3.222,1.233c-0.928-0.987-2.246-1.604-3.71-1.604c-2.805,0-5.082,2.274-5.082,5.079
			c0,0.398,0.048,0.787,0.132,1.158c-4.22-0.211-7.96-2.233-10.466-5.308c-0.439,0.749-0.69,1.624-0.69,2.554
			c0,1.761,0.896,3.317,2.259,4.227c-0.831-0.026-1.613-0.253-2.299-0.633c0,0.02,0,0.042,0,0.062c0,2.461,1.75,4.514,4.075,4.979
			c-0.426,0.118-0.875,0.18-1.341,0.18c-0.325,0-0.644-0.03-0.954-0.092c0.646,2.018,2.521,3.485,4.743,3.529
			c-1.737,1.363-3.926,2.172-6.308,2.172c-0.409,0-0.813-0.021-1.209-0.07c2.246,1.441,4.915,2.286,7.785,2.286
			c9.341,0,14.449-7.741,14.449-14.455c0-0.22-0.005-0.439-0.014-0.657C40.288,23.42,41.149,22.528,41.83,21.508L41.83,21.508z
			 M41.83,21.508"/>
	</g>
</g>
</svg>
