<?xml version="1.0" encoding="utf-8"?>
<!-- Generator: Adobe Illustrator 16.0.0, SVG Export Plug-In . SVG Version: 6.00 Build 0)  -->
<!DOCTYPE svg PUBLIC "-//W3C//DTD SVG 1.1//EN" "http://www.w3.org/Graphics/SVG/1.1/DTD/svg11.dtd">
<svg version="1.1" id="Layer_1" xmlns="http://www.w3.org/2000/svg" xmlns:xlink="http://www.w3.org/1999/xlink" x="0px" y="0px"
	 width="57.031px" height="57.586px" viewBox="0 0 57.031 57.586" enable-background="new 0 0 57.031 57.586" xml:space="preserve">
<g>
	<g>
		<g opacity="0.7">
			<path fill="#010101" d="M28.515,49.386c-11.458,0-20.779-9.324-20.779-20.778c0-11.458,9.321-20.779,20.779-20.779
				c11.455,0,20.779,9.321,20.779,20.779C49.294,40.062,39.97,49.386,28.515,49.386z"/>
		</g>
		<radialGradient id="SVGID_1_" cx="27.9219" cy="26.4058" r="20.4507" gradientUnits="userSpaceOnUse">
			<stop  offset="0" style="stop-color:#35B1E1"/>
			<stop  offset="1" style="stop-color:#065382"/>
		</radialGradient>
		<path fill="url(#SVGID_1_)" stroke="#35B1E1" stroke-width="0.3626" stroke-miterlimit="10" d="M28.515,49.386
			c-11.458,0-20.779-9.324-20.779-20.778c0-11.458,9.321-20.779,20.779-20.779c11.455,0,20.779,9.321,20.779,20.779
			C49.294,40.062,39.97,49.386,28.515,49.386z"/>
		<path fill="#F2F2F2" d="M41.83,21.508c-0.909,0.404-1.89,0.677-2.918,0.8c1.05-0.628,1.854-1.624,2.232-2.811
			c-0.98,0.583-2.065,1.004-3.222,1.233c-0.928-0.987-2.246-1.604-3.71-1.604c-2.805,0-5.082,2.274-5.082,5.079
			c0,0.398,0.048,0.787,0.132,1.158c-4.22-0.211-7.96-2.233-10.466-5.308c-0.439,0.749-0.69,1.624-0.69,2.554
			c0,1.761,0.896,3.317,2.259,4.227c-0.831-0.026-1.613-0.253-2.299-0.633c0,0.02,0,0.042,0,0.062c0,2.461,1.75,4.514,4.075,4.979
			c-0.426,0.118-0.875,0.18-1.341,0.18c-0.325,0-0.644-0.03-0.954-0.092c0.646,2.018,2.521,3.485,4.743,3.529
			c-1.737,1.363-3.926,2.172-6.308,2.172c-0.409,0-0.813-0.021-1.209-0.07c2.246,1.441,4.915,2.286,7.785,2.286
			c9.341,0,14.449-7.741,14.449-14.455c0-0.22-0.005-0.439-0.014-0.657C40.288,23.42,41.149,22.528,41.83,21.508L41.83,21.508z
			 M41.83,21.508"/>
	</g>
</g>
<g>
	<g>
		<g opacity="0.7">
			<path fill="#010101" d="M28.515,49.815c-11.745,0-21.3-9.553-21.3-21.299c0-11.745,9.555-21.298,21.3-21.298
				c11.742,0,21.3,9.553,21.3,21.298C49.815,40.263,40.257,49.815,28.515,49.815z"/>
		</g>
		<radialGradient id="SVGID_2_" cx="28.5151" cy="28.5171" r="21.2991" gradientUnits="userSpaceOnUse">
			<stop  offset="0" style="stop-color:#019547"/>
			<stop  offset="1" style="stop-color:#044827"/>
		</radialGradient>
		<path fill="url(#SVGID_2_)" stroke="#019547" stroke-width="0.3626" stroke-miterlimit="10" d="M28.515,49.815
			c-11.745,0-21.3-9.553-21.3-21.299c0-11.745,9.555-21.298,21.3-21.298c11.742,0,21.3,9.553,21.3,21.298
			C49.815,40.263,40.257,49.815,28.515,49.815z"/>
		<path fill-rule="evenodd" clip-rule="evenodd" fill="#F2F2F2" d="M34.675,29.963c-0.298-0.16-1.749-0.941-2.02-1.054
			c-0.27-0.108-0.468-0.167-0.68,0.126c-0.212,0.293-0.812,0.949-0.996,1.142c-0.181,0.195-0.356,0.213-0.653,0.05
			c-0.293-0.162-1.248-0.514-2.357-1.579c-0.865-0.829-1.428-1.836-1.595-2.143c-0.162-0.307,0-0.464,0.158-0.608
			c0.14-0.131,0.311-0.34,0.468-0.509s0.212-0.293,0.32-0.489c0.108-0.196,0.063-0.374-0.006-0.527s-0.615-1.654-0.84-2.264
			c-0.23-0.611-0.482-0.521-0.658-0.525c-0.176-0.007-0.374-0.039-0.572-0.047c-0.203-0.007-0.532,0.056-0.815,0.345
			c-0.289,0.291-1.09,0.989-1.147,2.465c-0.056,1.478,0.967,2.947,1.111,3.152c0.142,0.205,1.951,3.407,4.957,4.728
			c3.01,1.316,3.027,0.915,3.577,0.884c0.555-0.027,1.803-0.663,2.082-1.353c0.274-0.689,0.298-1.293,0.226-1.419
			C35.166,30.206,34.968,30.125,34.675,29.963L34.675,29.963z M29.155,37.081c-1.987,0-3.839-0.595-5.385-1.617l-3.762,1.203
			l1.221-3.637c-1.172-1.613-1.866-3.597-1.866-5.739c0-5.4,4.394-9.794,9.792-9.794c5.403,0,9.796,4.394,9.796,9.794
			C38.951,32.688,34.558,37.081,29.155,37.081L29.155,37.081z M29.155,15.528c-6.493,0-11.761,5.265-11.761,11.763
			c0,2.224,0.618,4.302,1.688,6.073l-2.125,6.313l6.514-2.086c1.688,0.933,3.625,1.464,5.684,1.464
			c6.498,0,11.766-5.267,11.766-11.764C40.92,20.793,35.653,15.528,29.155,15.528L29.155,15.528z"/>
	</g>
</g>
</svg>
